<svg width="282" height="282" viewBox="0 0 282 282" fill="none" xmlns="http://www.w3.org/2000/svg">
<path d="M141 282C218.872 282 282 218.872 282 141C282 63.1278 218.872 0 141 0C63.1278 0 0 63.1278 0 141C0 218.872 63.1278 282 141 282Z" fill="black"/>
<path d="M145.86 10.6493L148.713 10.9209L147.353 27.6271L157.133 28.4419L156.998 30.8867L144.366 29.8001L145.86 10.6493Z" fill="white"/>
<path d="M162.566 22.1948C164.061 16.2187 167.32 12.959 172.346 14.3172C177.371 15.5395 178.729 19.75 177.236 25.7262C175.741 31.7023 172.481 34.8262 167.456 33.6039C162.566 32.2456 161.208 28.0352 162.566 22.1948ZM174.519 24.9112C175.333 21.7874 175.876 17.577 171.803 16.4903C167.728 15.5395 166.233 19.4783 165.554 22.7381C164.74 25.862 164.196 30.0725 168.271 31.1591C172.21 32.1098 173.704 28.0352 174.519 24.9112Z" fill="white"/>
<path d="M184.298 17.848L187.014 19.0705L186.199 29.9361L185.521 36.3197L189.594 31.4303L196.794 23.1451L199.509 24.2317L185.791 39.3078L182.939 38.0855L184.298 17.848Z" fill="white"/>
<path d="M205.079 27.356L215.672 34.0112L214.45 36.0485L206.301 30.8873L203.177 35.7769L210.239 40.259L209.017 42.2963L201.954 37.8142L198.694 42.9754L206.844 48.1367L205.622 50.174L195.027 43.5186L205.079 27.356Z" fill="white"/>
<path d="M227.625 59.6805C232.65 55.47 234.687 56.0133 235.91 57.5073C236.725 58.4581 236.86 59.5446 236.317 60.7671L237.404 59.8163L238.898 61.5821L230.477 68.6448C229.39 69.5955 229.39 70.4104 230.07 71.2253C230.749 72.0403 231.563 72.0403 232.65 71.2253L240.12 64.9775C243.108 62.5328 244.467 60.3596 241.75 57.2357C239.848 54.9267 238.083 54.7909 236.59 56.0133L234.96 54.1117C236.59 52.7536 239.985 51.6671 243.652 56.0133C248.27 61.4461 244.33 64.8417 241.75 67.0149L234.28 73.1269C231.563 75.4359 229.39 73.9418 228.304 72.7194C226.81 70.9538 227.217 69.4597 227.897 68.6448C226.267 69.0522 225.044 68.7805 223.957 67.5582C222.735 65.7925 222.735 63.7552 227.625 59.6805ZM228.168 67.2865L235.095 61.4461C235.367 60.7671 235.23 59.9521 234.823 59.273C234.008 58.3223 233.057 58.594 229.39 61.5821C225.723 64.5701 225.315 65.5209 226.13 66.4715C226.538 67.2865 227.353 67.5582 228.168 67.2865Z" fill="white"/>
<path d="M260.223 87.5247L264.84 99.2054L262.531 100.156L258.863 91.056L252.888 93.365L256.011 101.378L253.838 102.329L250.715 94.3158L243.38 97.3039L242.293 94.7233L260.223 87.5247Z" fill="white"/>
<path d="M250.85 110.75L251.801 115.368L265.791 112.244L264.84 107.626L267.148 107.083L269.73 118.899L267.421 119.443L266.47 114.961L252.48 118.084L253.431 122.567L251.122 123.11L248.542 111.293L250.85 110.75Z" fill="white"/>
<path d="M270.953 127.456L271.223 132.345C271.496 137.235 269.593 140.359 265.926 140.63C262.803 140.766 260.765 139.001 259.95 136.42L252.752 142.803L252.48 139.272L259.271 133.568L259.135 130.987L252.073 131.394L251.937 128.542L270.953 127.456ZM261.445 130.851L261.58 133.024C261.853 136.556 263.346 137.914 265.519 137.778C267.693 137.642 269.051 136.148 268.915 132.617L268.778 130.444L261.445 130.851Z" fill="white"/>
<path d="M258.048 145.791L257.778 148.508C255.605 148.373 254.246 149.731 253.975 152.583C253.703 155.163 254.518 156.929 256.555 157.066C258.048 157.201 258.863 156.251 259.543 154.621L261.445 150.681C262.531 148.508 264.161 146.743 266.878 147.014C270.273 147.286 271.768 150.41 271.36 154.213C270.953 158.016 268.915 160.596 264.976 160.189L265.248 157.473C267.963 157.608 268.778 155.706 268.915 153.941C269.186 151.496 268.236 150.003 266.606 149.866C265.383 149.731 264.433 150.546 263.753 152.04L261.852 155.978C260.493 158.966 259 160.189 256.42 159.918C252.48 159.511 251.122 156.251 251.53 152.311C251.937 147.965 254.246 145.385 258.048 145.791Z" fill="white"/>
<path d="M265.383 172.549L267.013 166.301L269.323 166.979L265.248 182.192L262.938 181.514L264.568 175.264L248.405 171.054L249.085 168.338L265.383 172.549Z" fill="white"/>
<path d="M253.838 207.184L250.578 212.209C248.405 215.604 245.145 216.962 242.43 215.062C240.8 213.975 240.256 212.48 240.663 210.579C239.305 211.665 237.132 212.48 235.095 211.122C232.243 209.357 232.107 205.689 234.28 202.294L237.812 196.861L253.838 207.184ZM238.355 200.392L236.317 203.38C234.687 205.961 235.23 207.727 236.725 208.677C238.355 209.764 239.985 209.22 241.615 206.64L243.515 203.652L238.355 200.392ZM245.418 205.146L243.923 207.455C242.293 209.9 242.293 211.53 243.923 212.617C245.418 213.567 247.048 213.295 248.677 210.715L250.307 208.27L245.418 205.146Z" fill="white"/>
<path d="M229.662 213.024L226.538 216.555L237.132 226.198L240.257 222.667L242.022 224.297L233.872 233.262L232.107 231.632L235.23 228.235L224.637 218.592L221.512 221.988L219.747 220.358L227.897 211.394L229.662 213.024Z" fill="white"/>
<path d="M222.6 240.188L227.625 236.113L229.119 238.015L216.895 247.93L215.401 246.028L220.427 241.953L209.969 228.915L212.142 227.15L222.6 240.188Z" fill="white"/>
<path d="M211.191 251.598L200.324 257.845L199.103 255.808L207.524 251.055L204.671 246.028L197.337 250.24L196.114 248.202L203.449 243.992L200.461 238.695L192.039 243.448L190.818 241.41L201.684 235.163L211.191 251.598Z" fill="white"/>
<path d="M174.791 264.093C175.469 267.488 173.839 269.39 171.666 269.798C169.901 270.205 167.728 269.39 166.776 267.353C166.641 269.526 165.011 271.156 163.246 271.563C161.208 271.971 158.899 270.884 158.22 267.488C157.405 263.413 158.899 256.758 163.381 250.783C170.036 254.45 173.976 260.018 174.791 264.093Z" fill="white"/>
<path d="M132.142 271.699L129.29 271.428L131.191 254.857L121.412 253.77L121.684 251.325L134.179 252.82L132.142 271.699Z" fill="white"/>
<path d="M115.572 259.746C113.942 265.723 110.547 268.711 105.521 267.353C100.632 265.994 99.2736 261.783 101.039 255.808C102.669 249.831 106.065 246.843 111.09 248.201C115.98 249.56 117.202 253.906 115.572 259.746ZM103.891 256.486C103.077 259.611 102.262 263.821 106.336 264.908C110.411 265.994 111.905 262.056 112.856 258.931C113.671 255.808 114.486 251.598 110.411 250.51C106.336 249.423 104.706 253.498 103.891 256.486Z" fill="white"/>
<path d="M93.8407 263.278L91.1242 262.056L92.3467 251.19L93.1615 244.806L88.9511 249.56L81.4809 257.573L78.7644 256.351L92.89 241.818L95.7422 243.176L93.8407 263.278Z" fill="white"/>
<path d="M73.3314 253.091L63.0091 246.163L64.3672 244.127L72.3808 249.56L75.6404 244.806L68.7135 240.188L70.0718 238.15L76.9987 242.768L80.3943 237.608L72.3808 232.175L73.7389 230.137L83.9256 237.2L73.3314 253.091Z" fill="white"/>
<path d="M51.8715 220.086C46.7103 224.16 44.673 223.482 43.5864 221.988C42.7715 220.9 42.6356 219.95 43.3148 218.592L42.2282 219.543L40.87 217.777L49.5625 210.987C50.6492 210.172 50.785 209.22 50.1059 208.405C49.4267 207.59 48.6119 207.455 47.5252 208.405L39.7834 214.382C36.6594 216.827 35.3013 218.864 37.8819 221.988C39.7834 224.433 41.549 224.568 43.0431 223.345L44.5371 225.383C42.7715 226.741 39.5117 227.692 35.9804 223.21C31.6341 217.642 35.7087 214.382 38.1535 212.345L45.7596 206.368C48.6119 204.195 50.6492 205.689 51.7357 207.047C53.094 208.813 52.6865 210.307 52.0073 211.122C53.6373 210.85 54.8596 211.122 55.8103 212.345C56.8969 214.11 56.8969 216.012 51.8715 220.086ZM51.5999 212.345L44.5371 217.913C44.2655 218.592 44.2656 219.407 44.8088 220.086C45.6237 221.037 46.5744 220.9 50.2417 217.913C53.9088 214.925 54.4521 214.11 53.6373 213.16C53.094 212.48 52.279 212.208 51.5999 212.345Z" fill="white"/>
<path d="M20.2252 191.156L16.0146 179.204L18.3237 178.389L21.5833 187.624L27.5594 185.452L24.7073 177.302L27.0162 176.487L29.8685 184.637L37.3386 181.921L38.2894 184.637L20.2252 191.156Z" fill="white"/>
<path d="M30.2759 168.338L29.461 163.721L15.3354 166.301L16.1504 170.919L13.8415 171.326L11.6683 159.374L13.9773 158.966L14.7922 163.584L28.9177 161.004L28.1027 156.386L30.4117 155.978L32.5848 167.931L30.2759 168.338Z" fill="white"/>
<path d="M10.7176 150.953L10.5818 145.928C10.446 141.038 12.3475 137.914 16.1504 137.778C19.2744 137.642 21.3117 139.544 21.9908 142.261L29.461 136.148L29.5969 139.68L22.67 145.248L22.8058 147.829L29.8685 147.693L30.0042 150.546L10.7176 150.953ZM20.361 147.829V145.656C20.2252 141.988 18.7312 140.766 16.5579 140.766C14.3848 140.766 13.0266 142.261 13.0266 145.791V147.965L20.361 147.829Z" fill="white"/>
<path d="M24.1639 133.025L24.5714 130.309C26.7445 130.444 28.2385 129.222 28.5102 126.37C28.7818 123.789 28.1027 122.023 26.2012 121.752C24.7071 121.616 23.8922 122.431 23.0773 124.061L21.04 127.999C19.9533 130.173 18.1877 131.938 15.4712 131.531C12.0757 131.123 10.7175 127.864 11.125 124.196C11.6683 120.394 13.8414 117.949 17.7802 118.356L17.3728 121.073C14.6564 120.801 13.8414 122.702 13.5698 124.604C13.2981 127.049 14.2489 128.543 15.7429 128.679C16.9653 128.814 17.916 128.135 18.731 126.641L20.7683 122.702C22.2623 119.714 23.7564 118.492 26.337 118.899C30.2758 119.443 31.4983 122.702 30.955 126.641C30.4117 130.988 27.9669 133.568 24.1639 133.025Z" fill="white"/>
<path d="M17.7801 105.996L16.0145 112.244L13.7055 111.565L18.1876 96.4885L20.4966 97.1677L18.5951 103.415L34.622 108.169L33.8072 110.886L17.7801 105.996Z" fill="white"/>
<path d="M30.4117 71.7694L33.8073 66.8798C36.1163 63.4843 39.3759 62.3977 42.0924 64.1635C43.7223 65.25 44.1297 66.8798 43.7223 68.6456C45.0805 67.559 47.2536 66.8798 49.2909 68.3739C52.0074 70.2754 52.1432 73.9425 49.8342 77.3381L46.0313 82.771L30.4117 71.7694ZM38.6969 74.0785L40.3267 71.7694C41.9565 69.4604 42.0924 67.8306 40.4625 66.6083C39.1044 65.6575 37.3386 65.7933 35.7088 68.2381L34.0788 70.6829L38.6969 74.0785ZM45.7596 78.9681L47.7969 75.98C49.5626 73.3993 49.0193 71.6337 47.6611 70.6829C46.1671 69.5963 44.4013 70.1396 42.7715 72.4485L40.7342 75.5725L45.7596 78.9681Z" fill="white"/>
<path d="M54.8597 66.7442L58.1195 63.3486L47.797 53.4337L44.5372 56.8292L42.7716 55.1994L51.1926 46.371L52.9582 48.0008L49.6985 51.3964L60.021 61.3113L63.2807 57.9158L65.0464 59.5457L56.6255 68.3742L54.8597 66.7442Z" fill="white"/>
<path d="M62.7372 39.8507L57.5759 43.7895L56.0819 41.888L68.7134 32.3804L70.2074 34.2819L65.0461 38.2207L75.097 51.5313L72.788 53.1611L62.7372 39.8507Z" fill="white"/>
<path d="M74.5537 28.8491L85.5553 23.0089L86.6418 25.182L78.0851 29.6641L80.8016 34.8253L88.2718 30.8866L89.3583 33.0597L81.8881 36.9985L84.7404 42.4314L93.2972 37.9493L94.3837 40.1224L83.518 45.691L74.5537 28.8491Z" fill="white"/>
<path d="M111.226 17.4404C110.682 14.0449 112.448 12.1434 114.485 11.8718C116.251 11.6001 118.424 12.4151 119.239 14.4524C119.375 12.2792 121.141 10.7852 122.906 10.3777C124.944 9.97028 127.253 11.1927 127.796 14.5882C128.475 18.6629 126.709 25.3181 122.091 31.1585C115.708 27.2196 111.905 21.5151 111.226 17.4404Z" fill="white"/>
<path d="M152.728 190.618C148.39 190.618 133.604 189.452 132.459 189.027C132.389 188.757 132.315 188.488 132.241 188.214C132.241 188.214 131.598 185.911 131.471 185.444L131.022 183.802C130.758 182.83 130.486 181.82 130.206 180.834C130.029 180.211 129.835 179.584 129.646 178.974C129.551 178.662 129.279 177.787 129.279 177.787C129.168 177.42 129.057 177.054 128.958 176.692C128.785 176.056 128.616 175.421 128.447 174.785C128.121 173.564 127.784 172.305 127.425 171.072C127.054 169.796 126.725 168.483 126.404 167.216C126.21 166.45 126.012 165.658 125.806 164.879C125.633 164.227 125.427 163.579 125.229 162.951C125.102 162.556 124.978 162.16 124.859 161.76C124.018 158.935 123.314 156.001 122.758 153.033C122.453 151.395 122.284 149.893 122.243 148.428C122.218 147.569 122.201 146.706 122.185 145.847L122.181 145.691C122.16 144.622 122.136 143.532 122.107 142.462C122.049 140.421 121.979 138.593 121.897 136.872C121.868 136.282 121.814 135.685 121.765 135.104C121.728 134.683 121.691 134.287 121.662 133.891C121.621 133.264 121.588 132.628 121.555 132.014L121.452 130.149C121.39 129.092 121.332 128.019 121.295 126.966C121.217 124.764 121.172 122.824 121.147 121.039C121.13 119.662 121.143 118.168 121.188 116.467C121.209 115.625 121.254 114.77 121.299 113.941C121.324 113.478 121.349 113.019 121.369 112.556C121.382 112.308 121.386 112.059 121.394 111.811C121.402 111.483 121.41 111.205 121.423 110.927C121.431 110.737 121.452 110.544 121.468 110.359C121.481 110.215 121.497 110.072 121.505 109.933C121.555 109.23 121.604 108.523 121.654 107.82C121.715 106.911 121.872 106.191 122.144 105.555C122.383 104.995 122.663 104.688 123.042 104.557C123.33 104.461 123.602 104.41 123.849 104.41C124.241 104.41 124.599 104.536 124.908 104.785C125.526 105.282 125.926 105.959 126.09 106.801L126.202 107.349C126.305 107.833 126.403 108.313 126.461 108.788C126.576 109.786 126.638 110.67 126.655 111.491C126.667 112.236 126.749 112.977 126.828 113.688C126.857 113.941 126.886 114.194 126.91 114.45C126.956 114.901 126.993 115.347 127.03 115.798C127.079 116.387 127.133 116.997 127.199 117.595C127.297 118.513 127.417 119.439 127.532 120.336L127.701 121.679C127.8 122.453 127.899 123.253 128.01 124.036C128.154 125.051 128.319 126.128 128.529 127.433C128.55 127.572 128.537 127.661 128.476 127.779C128.076 128.553 127.829 129.383 127.738 130.254C127.631 131.268 127.627 132.329 127.714 133.495L127.755 134.085C127.8 134.733 127.85 135.407 127.94 136.068C128.051 136.867 128.183 137.676 128.315 138.459C128.434 139.187 128.546 139.873 128.645 140.555C128.863 142.058 129.201 143.553 129.526 145.001C129.65 145.544 129.769 146.079 129.885 146.613C130.115 147.682 130.321 148.545 130.54 149.32C130.663 149.754 130.828 150.17 130.993 150.575C131.05 150.713 131.108 150.857 131.162 150.996C131.45 151.741 131.821 152.608 132.385 153.391C133.024 154.275 133.848 154.822 134.832 155.007C135.038 155.045 135.248 155.066 135.454 155.066C135.961 155.066 136.468 154.953 136.954 154.725C137.493 154.473 138.017 154.178 138.519 153.888C138.618 153.829 138.659 153.825 138.684 153.825C138.709 153.825 138.742 153.833 138.779 153.854C139.207 154.077 139.702 154.216 140.336 154.292C140.488 154.309 140.641 154.317 140.789 154.317C141.667 154.317 142.495 154.01 143.323 153.378C144.283 152.646 144.888 151.665 145.185 150.381C145.251 150.09 145.321 149.8 145.395 149.509C145.49 149.118 145.572 148.79 145.646 148.461C145.663 148.398 145.675 148.335 145.683 148.268C145.803 148.444 145.922 148.617 146.046 148.794C146.293 149.152 146.54 149.509 146.771 149.867C147.179 150.503 147.496 151.118 147.739 151.745C147.957 152.305 148.291 152.789 148.616 153.231C148.719 153.366 148.814 153.509 148.913 153.648C149.189 154.048 149.469 154.452 149.848 154.784C149.881 154.822 149.906 154.847 149.935 154.864C149.935 154.864 151.175 155.837 151.603 156.169C151.71 156.249 151.826 156.329 151.966 156.35C152.003 156.359 152.044 156.359 152.089 156.359C152.2 156.359 152.357 156.334 152.468 156.224C152.555 156.14 152.596 156.03 152.592 155.917C152.588 155.782 152.514 155.652 152.386 155.542L152.027 155.235C151.706 154.961 151.377 154.679 151.043 154.418C150.693 154.144 150.33 153.837 150.062 153.446L149.758 153.004C149.473 152.587 149.21 152.208 148.962 151.829C148.888 151.72 148.835 151.598 148.777 151.467C148.74 151.391 148.707 151.315 148.67 151.24L148.431 150.76C148.2 150.288 147.97 149.817 147.714 149.387C147.541 149.093 147.331 148.806 147.15 148.554C146.997 148.343 146.841 148.124 146.701 147.901C146.363 147.367 146.042 146.853 145.803 146.318C145.238 145.051 144.311 144.18 142.96 143.649C141.382 143.031 139.71 142.349 138.169 141.397C137.625 141.06 137.209 140.762 136.855 140.446C135.5 139.238 134.433 138.004 133.588 136.67C133.275 136.173 133.032 135.617 132.855 134.977C132.752 134.607 132.768 134.198 132.912 133.698C133.061 133.18 133.308 132.683 133.687 132.153L133.79 132.237C134.008 132.388 134.214 132.531 134.412 132.691C135.446 133.542 136.616 134.215 137.646 134.813C138.177 135.12 138.775 135.415 139.413 135.689C139.669 135.798 139.932 135.857 140.192 135.912C140.315 135.941 140.439 135.967 140.558 136C140.616 136.017 140.678 136.026 140.736 136.026C140.975 136.026 141.172 135.874 141.242 135.63C141.444 134.948 141.634 134.266 141.811 133.63C141.84 133.525 141.86 133.424 141.881 133.314C142.606 133.512 143.347 133.643 144.097 133.698C144.554 133.731 145.568 133.811 145.568 133.811C146.165 133.857 146.775 133.908 147.38 133.946C148.25 134.005 148.983 134.342 149.63 134.977C150.334 135.672 150.969 136.497 151.57 137.507C151.727 137.773 151.883 138.042 152.04 138.311C152.332 138.821 152.604 139.288 152.884 139.743C153.267 140.353 153.667 140.934 154.071 141.465C154.339 141.818 154.652 142.13 154.952 142.433L155.068 142.551C155.335 142.82 155.62 143.085 155.941 143.359C156.275 143.645 156.588 143.99 156.954 144.483L157.02 144.571C157.655 145.422 158.31 146.302 158.845 147.24C159.373 148.171 159.645 149.164 159.838 150.015C160.048 150.945 160.007 151.905 159.97 152.835L159.945 153.429C159.904 154.73 159.752 156.009 159.5 157.234L159.455 157.411C159.311 158.114 159.158 158.843 158.969 159.546C158.726 160.463 158.466 161.394 158.219 162.29C157.89 163.482 157.568 164.648 157.268 165.797C157.095 166.454 156.967 167.127 156.843 167.776C156.843 167.776 156.728 168.374 156.674 168.626L156.464 169.632C156.291 170.453 156.114 171.299 155.962 172.133C155.797 173.021 155.644 173.93 155.496 174.81L155.265 176.17L155.051 177.387C154.907 178.203 154.759 179.02 154.635 179.833C154.524 180.557 154.433 181.293 154.343 182.009L154.211 183.07C154.186 183.242 154.165 183.394 154.137 183.529C154.034 184.055 153.943 184.577 153.939 185.128C153.939 185.322 153.902 185.533 153.869 185.735L153.844 185.874C153.634 187.2 153.56 188.606 153.618 190.29C153.622 190.391 153.618 190.487 153.613 190.58C153.51 190.597 153.267 190.618 152.728 190.618Z" fill="white"/>
<path d="M154.664 140.568C154.478 140.34 154.301 140.113 154.136 139.873C153.807 139.393 153.378 138.753 153.012 138.088C152.414 137.01 151.71 135.983 151.092 135.078C150.429 134.11 149.65 133.495 148.711 133.184C148.208 133.02 147.66 132.914 146.989 132.851H146.98V132.775C146.976 132.443 146.972 132.19 146.985 131.929C147.038 130.936 146.972 129.875 146.779 128.587C146.667 127.846 146.606 127.168 146.597 126.52C146.573 124.528 146.634 122.369 146.783 119.915C146.807 119.519 146.803 119.11 146.799 118.719C146.795 118.483 146.795 118.256 146.795 118.029C146.799 117.675 146.807 117.317 146.82 116.963C146.82 116.963 146.985 109.866 146.993 109.289C147.005 108.683 147.013 108.081 147.022 107.475C147.038 106.216 147.059 104.915 147.112 103.64C147.178 102.048 147.314 100.84 147.549 99.7287C147.578 99.594 147.59 99.4593 147.603 99.3246C147.611 99.2109 147.619 99.1183 147.635 99.0257C147.706 98.6047 147.767 98.1795 147.829 97.7585C147.982 96.7187 148.138 95.6452 148.41 94.618C148.542 94.1213 148.707 93.6582 148.904 93.2414C149.254 92.5089 149.885 92.0459 150.779 91.8733C150.981 91.8438 151.199 91.8228 151.43 91.8228C151.504 91.8228 151.578 91.827 151.652 91.8312C152.179 91.8606 152.571 92.1174 152.892 92.6395C153.115 93.0099 153.296 93.4014 153.44 93.8308C153.971 95.4305 154.029 97.085 154.046 98.7773C154.05 99.2993 154.054 99.8255 154.054 100.347C154.058 101.497 154.062 102.684 154.099 103.85C154.128 104.751 154.198 105.648 154.268 106.519C154.297 106.856 154.322 107.193 154.346 107.529C154.367 107.786 154.387 108.039 154.412 108.296C154.458 108.788 154.499 109.247 154.515 109.697C154.598 111.857 154.701 114.694 154.75 117.532C154.762 118.235 154.754 118.95 154.746 119.641V119.717C154.742 120.272 154.734 120.845 154.738 121.413C154.742 121.982 154.701 122.562 154.659 123.127C154.635 123.493 154.606 123.868 154.589 124.238C154.569 124.764 154.561 125.299 154.552 125.812C154.544 126.2 154.54 126.591 154.528 126.979C154.511 127.458 154.495 127.938 154.478 128.418C154.453 129.029 154.429 129.656 154.416 130.275L154.4 130.919C154.363 132.329 154.326 133.786 154.416 135.23C154.433 135.461 154.437 135.697 154.445 135.929C154.453 136.126 154.458 136.299 154.466 136.472L154.664 140.568Z" fill="white"/>
<path d="M135.627 153.925C135.199 153.925 134.749 153.837 134.243 153.656C133.905 153.534 133.6 153.29 133.312 152.906C132.776 152.199 132.418 151.395 132.096 150.633C131.594 149.442 131.215 148.196 130.939 146.823C130.782 146.049 130.609 145.261 130.445 144.504C130.263 143.679 130.078 142.824 129.913 141.982C129.789 141.359 129.695 140.719 129.6 140.105C129.546 139.759 129.497 139.423 129.443 139.086C129.382 138.711 129.316 138.332 129.246 137.958C129.114 137.221 128.978 136.459 128.887 135.714C128.636 133.651 128.603 131.954 128.788 130.384C128.875 129.639 128.982 129.024 129.229 128.443C129.485 127.837 129.888 127.391 130.432 127.117C130.638 127.012 130.906 126.978 131.087 126.966C131.343 126.945 131.577 126.932 131.804 126.932C132.607 126.932 133.291 127.075 133.897 127.37C134.255 127.543 134.523 127.745 134.721 127.993C135.129 128.502 135.491 128.965 135.816 129.458C135.977 129.702 136.055 129.993 136.121 130.308C135.899 130.249 135.681 130.22 135.458 130.22C135.005 130.22 134.544 130.342 134.057 130.595C133.044 131.117 132.405 131.984 132.105 133.247C132.022 133.592 131.936 134.005 131.911 134.421C131.874 135.002 132.039 135.541 132.224 136.084C132.611 137.221 133.341 138.126 134.049 139.002C134.815 139.949 135.644 140.799 136.513 141.532C136.566 141.574 136.587 141.607 136.583 141.725L136.579 141.831C136.55 142.706 136.521 143.611 136.5 144.504C136.484 145.11 136.476 145.72 136.467 146.327L136.455 147.143L133.295 147.846C133.011 147.909 132.723 147.973 132.442 148.048C132.043 148.158 131.87 148.461 131.973 148.886C132.158 149.661 132.393 150.326 132.682 150.932C133.032 151.669 133.534 152.304 134.21 152.873C134.762 153.336 135.392 153.399 135.94 153.399L136.158 153.395C136.253 153.391 136.348 153.382 136.443 153.374C136.517 153.365 136.591 153.357 136.669 153.357C137.069 153.34 137.419 153.205 137.72 153.058L137.806 153.138C137.625 153.264 137.435 153.361 137.25 153.458C137.164 153.504 137.077 153.546 136.991 153.593C136.558 153.812 136.113 153.925 135.627 153.925Z" fill="white"/>
<path d="M145.844 132.809C145.506 132.784 145.185 132.763 144.859 132.75C143.483 132.696 142.145 132.279 140.851 131.879L140.633 131.812C139.829 131.563 139.026 131.311 138.227 131.058L137.3 130.768C137.201 130.439 137.184 130.182 137.246 129.93C137.514 128.802 137.881 127.808 138.363 126.89C138.713 126.221 139.224 125.745 139.92 125.43C140.567 125.139 141.218 124.996 141.91 124.996C142.556 124.996 143.224 125.118 143.949 125.375C144.32 125.505 144.583 125.787 144.884 126.112L144.999 126.238C145.49 126.76 145.63 127.45 145.741 128.179C145.848 128.865 145.926 129.564 146.005 130.241L146.054 130.675C146.075 130.852 146.083 131.05 146.079 131.294C146.07 131.706 146.058 132.119 146.042 132.553L146.033 132.826L145.844 132.809Z" fill="white"/>
<path d="M140.488 153.272C139.957 153.272 139.479 153.117 139.034 152.797C138.173 152.178 137.679 151.302 137.522 150.119C137.423 149.366 137.423 148.595 137.423 147.846C137.423 147.446 137.423 147.046 137.407 146.646C137.382 145.88 137.428 145.097 137.473 144.343C137.502 143.868 137.531 143.392 137.543 142.921C137.547 142.706 137.547 142.487 137.547 142.255L137.654 142.323C138.017 142.542 138.354 142.744 138.696 142.937C139.965 143.649 141.057 144.192 142.252 144.541C142.725 144.68 143.335 144.891 143.838 145.299C144.097 145.51 144.287 145.728 144.414 145.964C144.414 145.964 144.69 146.461 144.748 146.566C144.867 146.789 144.909 146.983 144.884 147.193C144.781 148.031 144.612 148.861 144.373 149.652C144.295 149.909 144.2 150.166 144.105 150.414C144.015 150.645 143.928 150.877 143.854 151.113C143.627 151.82 143.092 152.296 142.548 152.7C142.05 153.07 141.44 153.176 140.859 153.247C140.731 153.268 140.608 153.272 140.488 153.272ZM138.214 149.568C138.21 149.749 138.206 149.921 138.227 150.094L138.243 150.233C138.28 150.578 138.321 150.936 138.445 151.277C138.659 151.866 139.051 152.262 139.582 152.414C139.817 152.481 140.031 152.544 140.249 152.544L140.814 152.548C141.082 152.548 141.399 152.54 141.72 152.477C142.289 152.363 142.746 151.976 143.117 151.298C143.475 150.645 143.693 149.909 143.768 149.113C143.829 148.465 143.899 147.812 143.961 147.236C144.015 146.764 143.879 146.57 143.434 146.474C141.967 146.149 140.488 145.981 138.972 145.825C138.915 145.817 138.861 145.817 138.816 145.817C138.387 145.817 138.317 146.158 138.28 146.343C138.177 146.865 138.227 148.705 138.206 148.966L138.214 149.568Z" fill="white"/>
<path d="M140.382 134.965C140.143 134.889 139.961 134.835 139.788 134.771C139.109 134.527 138.487 134.169 137.807 133.761L137.321 133.475C136.88 133.214 136.435 132.953 136.007 132.675C135.57 132.389 135.146 132.09 134.701 131.774L134.42 131.576C134.725 131.378 134.977 131.286 135.236 131.269C135.277 131.265 135.323 131.265 135.368 131.265C135.706 131.265 136.052 131.345 136.427 131.513C136.896 131.724 137.387 131.892 137.856 132.052L138.099 132.136C138.808 132.38 139.521 132.62 140.241 132.864L140.921 133.096L140.382 134.965Z" fill="white"/>
<path d="M135.986 152.305C135.29 152.301 134.762 152.027 134.421 151.497C133.918 150.709 133.403 149.867 133.09 148.954C133.263 148.903 133.423 148.857 133.592 148.823C134.412 148.655 135.236 148.495 136.06 148.335L136.451 148.259C136.447 148.449 136.447 148.596 136.456 148.743C136.48 149.257 136.513 149.855 136.563 150.448C136.6 150.924 136.752 151.396 137.036 151.93L137.164 152.174C137.02 152.233 136.859 152.267 136.674 152.284C136.509 152.301 136.328 152.305 136.093 152.305H135.986Z" fill="white"/>
<path d="M140.674 151.568C140.377 151.568 140.105 151.525 139.846 151.445C139.5 151.336 139.294 151.058 139.249 150.646C139.207 150.271 139.203 149.884 139.199 149.505L139.195 149.151C139.187 148.76 139.187 148.368 139.187 147.977V146.865C140.171 146.941 142.264 147.265 142.964 147.446C142.944 147.631 142.919 147.825 142.894 148.015L142.82 148.553C142.775 148.894 142.734 149.193 142.697 149.496C142.643 149.964 142.495 150.41 142.256 150.822C142.017 151.239 141.671 151.462 141.164 151.53C140.999 151.555 140.83 151.568 140.674 151.568Z" fill="white"/>
</svg>
