<svg width="86" height="158" viewBox="0 0 86 158" fill="none" xmlns="http://www.w3.org/2000/svg">
<path d="M69.0817 158C59.6096 158 27.3249 156.136 24.8241 155.455C24.6711 155.024 24.5093 154.594 24.3473 154.156C24.3473 154.156 22.9441 150.473 22.6652 149.726L21.6847 147.1C21.109 145.545 20.5152 143.93 19.9036 142.354C19.5168 141.357 19.094 140.355 18.6802 139.378C18.4734 138.88 17.8797 137.479 17.8797 137.479C17.6368 136.893 17.3939 136.308 17.178 135.729C16.8002 134.712 16.4314 133.695 16.0625 132.679C15.3518 130.726 14.6142 128.713 13.8317 126.741C13.0221 124.701 12.3024 122.601 11.6008 120.574C11.178 119.349 10.7462 118.083 10.2965 116.837C9.91865 115.794 9.46888 114.757 9.03709 113.754C8.75824 113.121 8.48837 112.488 8.22751 111.848C6.39244 107.33 4.85421 102.638 3.63983 97.8918C2.97416 95.2729 2.60535 92.8694 2.5154 90.5264C2.46142 89.1529 2.42544 87.7728 2.38946 86.3993L2.38047 86.1503C2.33549 84.4402 2.28151 82.6964 2.21855 80.9863C2.0926 77.7211 1.93968 74.7991 1.75977 72.0455C1.69681 71.103 1.57988 70.1469 1.47192 69.2178C1.39096 68.5446 1.31001 67.9117 1.24704 67.2789C1.15708 66.2757 1.08512 65.2591 1.01316 64.2761L0.78827 61.2936C0.653337 59.6038 0.527402 57.8869 0.446442 56.2038C0.275529 52.6826 0.176579 49.5789 0.122607 46.7243C0.0866249 44.5228 0.113611 42.1326 0.212561 39.4127C0.257539 38.0662 0.356488 36.6995 0.455439 35.3732C0.509411 34.6326 0.563384 33.8987 0.608361 33.1581C0.635346 32.7609 0.644343 32.3637 0.662333 31.9665C0.680324 31.4414 0.698315 30.997 0.725301 30.5527C0.743292 30.2497 0.78827 29.94 0.824252 29.6438C0.851237 29.4149 0.887219 29.1859 0.90521 28.9638C1.01316 27.8394 1.1211 26.7084 1.22905 25.584C1.36398 24.1298 1.7058 22.9785 2.2995 21.9619C2.82124 21.0665 3.43294 20.575 4.26051 20.3662C4.8902 20.2114 5.48389 20.1306 6.02362 20.1306C6.87819 20.1306 7.66079 20.3326 8.33544 20.7299C9.68477 21.5243 10.5573 22.6083 10.9171 23.9547L11.16 24.83C11.3849 25.6043 11.6008 26.3717 11.7267 27.1325C11.9786 28.7281 12.1135 30.142 12.1495 31.4548C12.1765 32.6465 12.3564 33.8314 12.5273 34.9692C12.5903 35.3732 12.6533 35.7771 12.7072 36.1878C12.8062 36.9082 12.8871 37.6218 12.9681 38.3422C13.076 39.2848 13.193 40.2611 13.3369 41.2171C13.5528 42.6848 13.8137 44.1659 14.0656 45.6L14.4343 47.7476C14.6503 48.9865 14.8662 50.2656 15.1091 51.5178C15.4239 53.1404 15.7837 54.864 16.2424 56.951C16.2874 57.1733 16.2605 57.3147 16.1256 57.5032C15.253 58.7419 14.7132 60.0683 14.5154 61.4619C14.2815 63.0845 14.2725 64.7811 14.4614 66.646L14.5513 67.5885C14.6503 68.6253 14.7582 69.7026 14.9561 70.7596C15.199 72.0388 15.4868 73.3314 15.7747 74.5836C16.0356 75.7484 16.2784 76.8459 16.4944 77.9365C16.971 80.34 17.7087 82.7301 18.4194 85.0461C18.6892 85.9145 18.95 86.7696 19.202 87.6246C19.7057 89.3347 20.1554 90.7149 20.6322 91.9537C20.9021 92.6471 21.2619 93.3137 21.6217 93.96C21.7477 94.1822 21.8736 94.411 21.9905 94.6333C22.6203 95.8249 23.4298 97.2119 24.6621 98.4641C26.0564 99.878 27.8555 100.753 30.0055 101.049C30.4553 101.11 30.914 101.144 31.3638 101.144C32.4702 101.144 33.5767 100.962 34.6381 100.598C35.8166 100.194 36.959 99.7231 38.0564 99.2586C38.2723 99.1643 38.3622 99.1576 38.4162 99.1576C38.4702 99.1576 38.5421 99.1711 38.6232 99.2047C39.5586 99.5615 40.6381 99.7837 42.0234 99.9049C42.3563 99.9318 42.6891 99.9453 43.0128 99.9453C44.9289 99.9453 46.737 99.4538 48.5452 98.4439C50.641 97.2724 51.9633 95.7038 52.611 93.6503C52.7549 93.1858 52.9079 92.7212 53.0697 92.2567C53.2767 91.6306 53.4566 91.1054 53.6185 90.5803C53.6546 90.4793 53.6815 90.3783 53.6995 90.2706C53.9603 90.5533 54.2212 90.8294 54.4911 91.1121C55.0308 91.6844 55.5705 92.2567 56.0743 92.8289C56.9648 93.8455 57.6575 94.8285 58.1882 95.8317C58.665 96.7271 59.3936 97.5013 60.1043 98.2083C60.3291 98.4237 60.5361 98.6526 60.7519 98.8748C61.3547 99.5143 61.9664 100.161 62.794 100.693C62.8659 100.753 62.9199 100.794 62.9827 100.82C62.9827 100.82 65.6905 102.376 66.6259 102.908C66.8598 103.036 67.1117 103.163 67.4175 103.197C67.4986 103.211 67.5885 103.211 67.6874 103.211C67.9303 103.211 68.2722 103.17 68.5149 102.995C68.7038 102.86 68.7938 102.685 68.7849 102.504C68.7759 102.288 68.6139 102.08 68.335 101.904L67.5524 101.413C66.8509 100.975 66.1312 100.524 65.4026 100.107C64.638 99.6693 63.8464 99.1778 63.2616 98.5516L62.596 97.8447C61.9753 97.1782 61.3996 96.5723 60.8598 95.9663C60.6979 95.7912 60.5811 95.5961 60.455 95.3873C60.3741 95.2662 60.3022 95.1449 60.2211 95.0238L59.6995 94.2562C59.1958 93.5022 58.6919 92.7482 58.1343 92.0615C57.7565 91.5901 57.2977 91.1323 56.9018 90.7284C56.5691 90.3917 56.2272 90.0417 55.9214 89.6848C55.1838 88.8298 54.4821 88.0085 53.9603 87.1534C52.728 85.1269 50.704 83.7332 47.7535 82.885C44.3082 81.8952 40.6561 80.8046 37.2919 79.283C36.1043 78.7444 35.1958 78.2664 34.4223 77.7614C31.4627 75.8292 29.133 73.8565 27.2889 71.7224C26.6052 70.9279 26.0745 70.0392 25.6876 69.0158C25.4628 68.4234 25.4987 67.7704 25.8137 66.9692C26.1374 66.1411 26.6772 65.3466 27.5048 64.4983L27.7296 64.6329C28.2064 64.8753 28.6562 65.1043 29.0879 65.36C31.3459 66.7201 33.9005 67.7972 36.1493 68.7533C37.3098 69.2447 38.6141 69.7161 40.0085 70.1536C40.5662 70.3287 41.1418 70.423 41.7086 70.5105C41.9784 70.5576 42.2483 70.598 42.5091 70.6519C42.6351 70.6788 42.7701 70.6923 42.896 70.6923C43.4177 70.6923 43.8494 70.4499 44.0024 70.0594C44.4431 68.9687 44.857 67.878 45.2437 66.8614C45.3068 66.6931 45.3517 66.5315 45.3967 66.3565C46.9798 66.6729 48.599 66.8817 50.2363 66.9692C51.2347 67.023 53.4476 67.1509 53.4476 67.1509C54.752 67.2249 56.0833 67.3057 57.4056 67.3664C59.3036 67.4606 60.9049 67.9992 62.3171 69.0158C63.8554 70.1268 65.2406 71.4463 66.554 73.0621C66.8959 73.4863 67.2376 73.9172 67.5795 74.348C68.2182 75.1627 68.8118 75.91 69.4236 76.6371C70.2602 77.6133 71.1327 78.5425 72.0143 79.3907C72.5989 79.9563 73.2826 80.4545 73.9393 80.9392L74.1911 81.1278C74.7759 81.5586 75.3965 81.9828 76.0982 82.4204C76.8268 82.8782 77.5104 83.4303 78.311 84.2179L78.455 84.3594C79.8403 85.7194 81.2706 87.1265 82.4399 88.6278C83.5913 90.1158 84.1851 91.7046 84.6078 93.0646C85.0667 94.5525 84.9766 96.0875 84.8957 97.5754L84.8417 98.5247C84.7517 100.605 84.419 102.652 83.8702 104.611L83.7713 104.894C83.4564 106.018 83.1236 107.183 82.7099 108.307C82.1791 109.775 81.6123 111.263 81.0726 112.697C80.353 114.602 79.6514 116.467 78.9947 118.305C78.6168 119.355 78.338 120.433 78.0681 121.469C78.0681 121.469 77.8163 122.426 77.6993 122.829L77.2405 124.439C76.8627 125.751 76.476 127.105 76.1431 128.437C75.7833 129.858 75.4505 131.313 75.1266 132.719L74.6229 134.894L74.1551 136.84C73.8403 138.146 73.5165 139.452 73.2466 140.752C73.0037 141.909 72.8058 143.088 72.608 144.232L72.3201 145.929C72.2661 146.205 72.2211 146.447 72.1581 146.663C71.9332 147.505 71.7354 148.339 71.7264 149.221C71.7264 149.53 71.6455 149.867 71.5734 150.191L71.5194 150.413C71.0607 152.533 70.8988 154.782 71.0247 157.475C71.0337 157.637 71.0247 157.791 71.0157 157.94C70.7908 157.966 70.2602 158 69.0817 158Z" fill="black"/>
<path d="M73.3091 77.9565C72.9043 77.5928 72.5174 77.2293 72.1577 76.8456C71.4379 76.078 70.5025 75.0547 69.7019 73.991C68.3975 72.2674 66.8594 70.6246 65.51 69.1771C64.0617 67.6286 62.3615 66.6458 60.3107 66.1475C59.2131 65.8849 58.0167 65.7166 56.5505 65.6156H56.5326V65.4945C56.5236 64.9625 56.5145 64.5586 56.5415 64.1413C56.6585 62.5523 56.5145 60.8557 56.0917 58.7956C55.8488 57.6106 55.7139 56.5267 55.696 55.4898C55.642 52.3054 55.7769 48.8515 56.1008 44.9265C56.1547 44.2936 56.1457 43.6405 56.1367 43.0144C56.1277 42.6373 56.1277 42.2738 56.1277 41.9102C56.1367 41.3447 56.1547 40.7724 56.1817 40.2069C56.1817 40.2069 56.5415 28.8559 56.5595 27.9335C56.5864 26.964 56.6045 26.0012 56.6225 25.0317C56.6585 23.0187 56.7035 20.9383 56.8203 18.8984C56.9643 16.3534 57.2612 14.4212 57.7739 12.6438C57.8368 12.4283 57.8639 12.2129 57.8908 11.9975C57.9089 11.8157 57.9268 11.6676 57.9629 11.5195C58.1157 10.8462 58.2506 10.1662 58.3855 9.49292C58.7184 7.82998 59.0603 6.11318 59.654 4.47043C59.9418 3.67599 60.3016 2.9354 60.7333 2.26888C61.498 1.0974 62.8743 0.356826 64.8264 0.0807909C65.2671 0.0336629 65.7439 0 66.2476 0C66.4095 0 66.5715 0.00673257 66.7333 0.0134652C67.8847 0.0605931 68.7394 0.47128 69.441 1.30612C69.9267 1.89858 70.3226 2.52471 70.6374 3.21143C71.7979 5.76981 71.9238 8.41571 71.9597 11.1223C71.9687 11.957 71.9778 12.7986 71.9778 13.6335C71.9866 15.4715 71.9957 17.37 72.0766 19.2349C72.1396 20.6758 72.2926 22.1098 72.4454 23.5034C72.5084 24.042 72.5624 24.5806 72.6164 25.1193C72.6614 25.53 72.7064 25.9339 72.7604 26.3446C72.8592 27.1323 72.9493 27.8661 72.9852 28.5865C73.1651 32.0403 73.39 36.5781 73.498 41.1158C73.5249 42.2401 73.5069 43.3847 73.489 44.4888V44.61C73.4799 45.4987 73.4619 46.4144 73.4709 47.3232C73.4799 48.2321 73.39 49.1613 73.3 50.0634C73.246 50.6491 73.183 51.2484 73.1471 51.8409C73.1021 52.6824 73.0842 53.5375 73.0662 54.3587C73.0481 54.9782 73.0392 55.6043 73.0122 56.2237C72.9762 56.9912 72.9403 57.7587 72.9043 58.5263C72.8503 59.5025 72.7963 60.5056 72.7692 61.4953L72.7333 62.5254C72.6524 64.7808 72.5714 67.1103 72.7692 69.4195C72.8053 69.7899 72.8142 70.1668 72.8323 70.5372C72.8503 70.8536 72.8592 71.1296 72.8772 71.4057L73.3091 77.9565Z" fill="black"/>
<path d="M31.742 99.3189C30.8065 99.3189 29.8259 99.1776 28.7195 98.888C27.9819 98.6928 27.3163 98.3024 26.6867 97.6897C25.5172 96.5586 24.7346 95.2727 24.0329 94.0541C22.9355 92.1488 22.1079 90.1559 21.5052 87.9611C21.1633 86.7223 20.7855 85.4633 20.4257 84.2514C20.03 82.9319 19.6252 81.5651 19.2653 80.2186C18.9954 79.2222 18.7886 78.1989 18.5816 77.2159C18.4648 76.6639 18.3568 76.1253 18.2399 75.5866C18.105 74.9875 17.961 74.3815 17.8081 73.7824C17.5202 72.6041 17.2234 71.3855 17.0255 70.1939C16.4768 66.8949 16.4047 64.1816 16.8096 61.6704C16.9985 60.4788 17.2324 59.4958 17.7721 58.5667C18.3298 57.5973 19.2114 56.8835 20.3988 56.446C20.8485 56.2776 21.4332 56.2238 21.8291 56.2036C22.3868 56.1699 22.8995 56.1497 23.3943 56.1497C25.1484 56.1497 26.6415 56.3787 27.964 56.8499C28.7466 57.1259 29.3312 57.4491 29.7631 57.8463C30.6535 58.6609 31.4451 59.4015 32.1558 60.1893C32.5066 60.5798 32.6776 61.0443 32.8214 61.5493C32.3357 61.455 31.8589 61.4078 31.3732 61.4078C30.3837 61.4078 29.3762 61.6031 28.3147 62.007C26.1019 62.8419 24.7075 64.2288 24.051 66.2486C23.8711 66.8006 23.6821 67.4605 23.6282 68.1269C23.5472 69.056 23.907 69.9178 24.3118 70.7864C25.1574 72.6041 26.7495 74.0516 28.2968 75.452C29.9699 76.9668 31.778 78.3267 33.6761 79.4983C33.7929 79.5656 33.8379 79.6194 33.829 79.8079L33.82 79.9763C33.757 81.3767 33.6941 82.8242 33.6491 84.2514C33.613 85.2209 33.5951 86.1971 33.5771 87.1666L33.5502 88.4728L26.6506 89.5971C26.0299 89.6981 25.4002 89.7991 24.7886 89.9203C23.916 90.0953 23.5382 90.5801 23.7631 91.2601C24.1678 92.4988 24.6806 93.5626 25.3102 94.5321C26.0749 95.7103 27.1723 96.7269 28.6476 97.6358C29.853 98.3764 31.2293 98.4774 32.4257 98.4774L32.9025 98.4707C33.1093 98.464 33.3163 98.4505 33.5231 98.437C33.6851 98.4235 33.8469 98.41 34.0179 98.41C34.8905 98.3832 35.655 98.1676 36.3117 97.932L36.5007 98.06C36.1048 98.2619 35.691 98.4168 35.2862 98.5716C35.0973 98.6456 34.9084 98.7131 34.7195 98.7871C33.775 99.1371 32.8035 99.3189 31.742 99.3189Z" fill="black"/>
<path d="M54.0506 65.5481C53.313 65.5076 52.6113 65.474 51.9006 65.4538C48.8962 65.3663 45.9726 64.6997 43.148 64.0601L42.6714 63.9525C40.9172 63.5552 39.1631 63.1512 37.418 62.7473L35.3939 62.2827C35.1781 61.7576 35.1421 61.3469 35.2771 60.943C35.8617 59.1386 36.6624 57.5498 37.7148 56.0821C38.4795 55.0116 39.5948 54.2507 41.115 53.7459C42.5274 53.2813 43.9487 53.0524 45.4599 53.0524C46.8723 53.0524 48.3295 53.2477 49.9127 53.6584C50.7222 53.867 51.298 54.3181 51.9546 54.8365L52.2065 55.0385C53.277 55.8733 53.5828 56.9775 53.8257 58.1422C54.0596 59.2396 54.2305 60.3572 54.4013 61.4412L54.5093 62.1346C54.5543 62.4173 54.5724 62.7339 54.5633 63.1243C54.5453 63.7842 54.5184 64.4439 54.4823 65.1374L54.4644 65.5749L54.0506 65.5481Z" fill="black"/>
<path d="M42.356 98.2752C41.1955 98.2752 40.1521 98.0261 39.1806 97.5145C37.3006 96.5248 36.2211 95.1244 35.8792 93.2325C35.6634 92.0274 35.6634 90.7953 35.6634 89.5969C35.6634 88.9573 35.6634 88.3178 35.6274 87.6782C35.5734 86.4528 35.6724 85.2006 35.7713 83.9954C35.8342 83.2347 35.8972 82.4739 35.9242 81.7198C35.9332 81.3765 35.9332 81.0264 35.9332 80.6561L36.1671 80.7638C36.9587 81.1139 37.6963 81.4371 38.443 81.7467C41.2136 82.8846 43.5973 83.753 46.206 84.3119C47.2405 84.5341 48.5718 84.8707 49.6692 85.5238C50.236 85.8603 50.6498 86.2105 50.9286 86.5874C50.9286 86.5874 51.5313 87.382 51.6572 87.5502C51.9182 87.9071 52.0081 88.2167 51.9541 88.5534C51.7293 89.8932 51.3605 91.2195 50.8387 92.4853C50.6678 92.896 50.4609 93.3065 50.254 93.7039C50.0561 94.0741 49.8672 94.4444 49.7053 94.8215C49.2105 95.9525 48.0411 96.7132 46.8536 97.3596C45.7652 97.9521 44.4339 98.1204 43.1655 98.2349C42.8866 98.2685 42.6168 98.2752 42.356 98.2752ZM37.3905 92.3505C37.3815 92.6401 37.3725 92.9161 37.4175 93.1922L37.4534 93.4143C37.5345 93.9664 37.6244 94.5386 37.8943 95.0841C38.3621 96.0266 39.2166 96.6594 40.377 96.9018C40.8898 97.0095 41.3575 97.1106 41.8342 97.1106L43.0667 97.1172C43.6513 97.1172 44.344 97.1038 45.0457 97.0028C46.287 96.821 47.2855 96.2016 48.095 95.1177C48.8777 94.0741 49.3544 92.896 49.5164 91.6234C49.6513 90.5866 49.8041 89.5431 49.9391 88.6207C50.0561 87.8667 49.7592 87.557 48.7877 87.4021C45.5854 86.8837 42.356 86.6144 39.0457 86.3653C38.9198 86.3518 38.8028 86.3518 38.7038 86.3518C37.7682 86.3518 37.6154 86.8972 37.5345 87.1934C37.3095 88.0283 37.4175 90.9704 37.3725 91.3878L37.3905 92.3505Z" fill="black"/>
<path d="M42.1218 68.9956C41.6 68.8743 41.2043 68.7868 40.8265 68.6859C39.3422 68.2953 37.984 67.723 36.4997 67.0701L35.4382 66.6122C34.4757 66.1948 33.5042 65.7773 32.5686 65.333C31.6152 64.8753 30.6886 64.3973 29.7171 63.8923L29.1054 63.5759C29.7711 63.2594 30.3198 63.1112 30.8866 63.0844C30.9765 63.0776 31.0755 63.0776 31.1743 63.0776C31.9119 63.0776 32.6676 63.2055 33.4862 63.4748C34.5117 63.8115 35.5822 64.0807 36.6077 64.3366L37.1383 64.4713C38.6856 64.8618 40.2418 65.2455 41.816 65.636L43.3002 66.0063L42.1218 68.9956Z" fill="black"/>
<path d="M32.5242 96.727C31.004 96.7202 29.8526 96.2827 29.1059 95.4343C28.0085 94.1754 26.884 92.8288 26.2004 91.3678C26.5782 91.287 26.929 91.213 27.2978 91.1591C29.0879 90.8898 30.887 90.6341 32.6861 90.3782L33.5407 90.257C33.5317 90.5599 33.5317 90.7956 33.5496 91.0313C33.6036 91.8525 33.6756 92.8087 33.7835 93.7579C33.8645 94.5186 34.1973 95.2727 34.818 96.1278L35.0969 96.5183C34.7821 96.6126 34.4312 96.6664 34.0264 96.6934C33.6666 96.7202 33.2709 96.727 32.7581 96.727H32.5242Z" fill="black"/>
<path d="M42.7613 95.5487C42.1136 95.5487 41.5199 95.4814 40.9532 95.3534C40.1977 95.1785 39.7478 94.7341 39.649 94.0743C39.5589 93.4751 39.55 92.8557 39.541 92.2498L39.5319 91.6843C39.5139 91.058 39.5139 90.4319 39.5139 89.8058V88.0284C41.6639 88.1496 46.2336 88.668 47.7628 88.9575C47.7179 89.2538 47.6639 89.5635 47.6099 89.8664L47.4479 90.7281C47.3489 91.2736 47.259 91.7516 47.178 92.2363C47.0612 92.9836 46.7373 93.6973 46.2155 94.3571C45.6938 95.0235 44.9382 95.3804 43.8318 95.4882C43.472 95.5285 43.1032 95.5487 42.7613 95.5487Z" fill="black"/>
</svg>
