<svg width="145" height="193" viewBox="0 0 145 193" fill="none" xmlns="http://www.w3.org/2000/svg">
<g clip-path="url(#clip0)">
<path d="M21.4145 62.4684L10.6473 54.1766L24.07 53.9824L24.819 51.6245L12.458 42.8208C10.5502 41.4602 9.17455 40.1955 8.47351 38.7606L8.42558 38.7366L7.00074 43.3075L7.04868 43.3314C8.47471 42.2382 10.4532 42.2861 12.9889 44.0867L20.1586 49.1682L10.7671 49.2641C8.40161 49.2641 6.73591 48.6084 5.86591 47.1986L5.81798 47.1747L3.38054 54.9546L3.42847 54.9786C4.85211 54.2749 6.73591 54.1766 8.73955 54.1766H9.51248L17.0201 59.9163L7.43574 59.8923C5.07021 59.8923 3.38054 59.2833 2.51054 57.8484L2.43864 57.8724L0 65.6559L0.0479339 65.6799C1.47277 64.975 3.3314 64.8767 5.36021 64.8767H20.6655L21.4145 62.4696V62.4684ZM17.1891 37.1554L23.9981 41.7755C26.1467 43.2343 26.8466 44.0615 28.0054 45.7877L28.0533 45.8117L31.9168 40.0732L31.8688 40.0492C29.888 39.6357 28.7531 39.2461 26.6776 37.8363L19.8698 33.1924C17.7931 31.7814 17.0201 30.8572 15.8853 29.1549L15.8374 29.131L11.9751 34.8694L12.023 34.8934C14.0027 35.3321 15.0405 35.6726 17.1891 37.1554ZM25.2048 26.2611L30.6849 32.4144C32.3985 34.3348 32.9066 35.3561 33.5825 37.2765L33.6064 37.3257L43.8188 28.1336L40.8001 22.6385L40.5353 22.7847C40.8972 25.1918 41.0182 29.5445 39.6905 30.8332L37.5658 32.997L28.7531 23.076C27.0635 21.1796 26.5566 20.1583 25.8567 18.2127L25.8328 18.1647L20.7146 22.7847L20.7386 22.8327C22.5721 23.7318 23.49 24.3167 25.2048 26.2611ZM41.331 12.8386L44.4946 21.0094C45.3874 23.3194 45.5084 24.4139 45.4365 26.3834L45.4605 26.4314L52.7512 23.5627C59.6082 20.8631 62.2637 16.0249 59.994 10.1402C57.7244 4.23036 52.3162 2.62643 45.6774 5.2529C42.3939 6.54157 41.0182 7.19729 38.4346 8.21863L38.4586 8.26658C39.8115 9.67752 40.4382 10.4807 41.3322 12.8386H41.331ZM45.8224 5.88465C50.2647 4.06134 53.0173 6.4193 55.3349 12.3531C57.3625 17.6049 57.2414 21.0585 52.5823 22.8818C52.4624 22.9298 51.4474 23.2954 50.6026 23.5388L44.0836 6.68662C44.7607 6.37135 45.6295 5.95777 45.8224 5.88345V5.88465ZM76.2664 20.1822C80.1047 20.5479 83.7261 19.3071 84.1371 14.9556C84.499 11.1364 81.9633 9.23997 79.4768 7.63484C77.1352 6.20112 74.8655 5.00956 75.0597 2.86977C75.2035 1.31259 76.4593 0.41232 78.0531 0.559768C80.0328 0.753966 81.6985 2.60125 83.4361 6.27305L83.7261 6.2251L83.5092 1.11839C82.2004 0.568662 80.8172 0.216382 79.4049 0.0730719C75.6624 -0.29135 72.0171 0.851066 71.6312 4.91246C71.2933 8.46198 73.8517 10.2134 76.4114 11.8413C78.6811 13.2762 80.8045 14.5169 80.5876 16.8761C80.4199 18.5783 79.164 19.8418 77.0393 19.6476C74.6726 19.4042 72.8379 17.3867 70.7133 12.8866L70.4484 12.9357L70.6162 18.4081C72.0183 19.2352 74.0447 19.9641 76.2664 20.1822ZM93.9624 25.1679C99.1536 27.6972 105.117 25.7517 107.603 20.5479C110.09 15.368 107.965 9.38622 102.774 6.85804C97.561 4.30469 91.5969 6.34617 89.1103 11.526C86.5998 16.7286 88.7484 22.6385 93.9636 25.1679H93.9624ZM93.6988 13.7857C96.0883 8.80123 99.1548 5.81033 102.51 7.43944C105.866 9.06975 105.384 13.3493 102.993 18.3337C100.58 23.3182 97.5371 26.2599 94.2296 24.656C90.9222 23.0017 91.3081 18.7701 93.6988 13.7869V13.7857ZM109.704 36.6939C113.663 40.7301 116.971 39.3192 120.181 36.1341L124.551 31.7826C126.434 29.909 127.738 29.5925 130.2 29.3012V29.2293L126.555 25.5323L126.507 25.5802C126.314 28.1096 125.879 29.3503 123.997 31.2468L119.481 35.7205C116.874 38.3218 113.88 39.6117 111.344 37.0344C109.463 35.1128 109.317 32.6086 112.625 29.3024L117.551 24.3899C119.384 22.5654 120.471 21.9324 122.258 21.2527L122.306 21.2048L117.428 16.2431L117.381 16.2671C116.56 18.1647 116.077 19.1129 114.218 20.9602L109.462 25.7025C105.671 29.4714 106.468 33.3866 109.704 36.6939ZM122.137 42.3101C119.867 43.5017 118.757 43.745 116.729 43.9404L116.681 43.9644L123.007 56.1953L129.042 54.5902L128.97 54.2989C126.579 54.0555 122.355 53.1073 121.413 51.5022L119.843 48.9009L131.577 42.7488C133.822 41.5573 134.933 41.3139 136.984 41.1185L137.033 41.0946L133.87 34.9677L133.822 34.9917C132.494 36.5717 131.697 37.3017 129.404 38.5172L122.137 42.3101ZM144.71 61.8858C143.962 58.1649 141.814 55.005 137.83 55.8057C134.353 56.5118 133.436 59.5027 132.639 62.4444C131.939 65.0457 131.383 67.454 129.066 67.9395C127.4 68.2812 125.831 67.4301 125.396 65.3382C124.913 62.9791 126.314 60.6451 129.96 57.2646L129.839 57.0225L124.672 58.7726C124.309 60.3538 124.213 62.5176 124.648 64.7065C125.42 68.5233 127.666 71.6353 131.915 70.7602C135.656 70.0074 136.695 67.0165 137.491 64.1467C138.168 61.4722 138.626 58.9441 140.727 58.5053C142.247 58.1889 143.479 59.1383 143.793 60.7182C144.179 62.6878 142.923 64.8036 139.93 67.5751L140.075 67.8424L144.855 66.1402C145.048 64.8276 145 63.3447 144.71 61.8846V61.8858ZM8.08764 104.172L19.4108 104.463L19.4588 103.054C18.4929 102.616 17.4551 101.423 17.4551 99.721L16.1034 99.697C16.0555 101.132 16.6343 102.324 17.1891 102.81L8.13678 102.566L8.08884 104.172H8.08764ZM13.3748 118.689C17.0693 118.786 19.2658 117.4 19.3629 114.457C19.4348 111.49 17.3101 110.008 13.6168 109.91C9.92231 109.813 7.72574 111.199 7.62868 114.142C7.53281 117.108 9.68145 118.592 13.3748 118.689ZM13.5677 111.49C16.2484 111.564 18.107 112.246 18.0351 114.409C17.9872 116.597 16.1034 117.157 13.4227 117.084C10.7432 117.012 8.88455 116.354 8.95645 114.166C9.00438 112.002 10.8882 111.418 13.5677 111.492V111.49ZM18.9998 128.293C19.0717 125.328 16.9482 123.844 13.2549 123.747C9.56041 123.649 7.36384 125.035 7.26678 127.978C7.19488 130.944 9.31955 132.428 13.0129 132.525C16.7062 132.622 18.9279 131.26 18.9998 128.293ZM8.57058 128.026C8.61851 125.862 10.5023 125.279 13.1818 125.352C15.8613 125.425 17.7212 126.106 17.6481 128.269C17.6001 130.458 15.7175 131.017 13.0368 130.944C10.3813 130.871 8.52264 130.215 8.57058 128.026ZM13.062 146.167C10.6713 146.848 10.3094 148.428 10.6713 149.74C11.0332 151.054 12.168 152.221 14.5575 151.565C16.9482 150.884 17.3101 149.303 16.9243 147.966C16.5863 146.678 15.4503 145.51 13.0608 146.167H13.062ZM14.2687 150.446C12.9409 150.811 12.023 150.568 11.709 149.498C11.3951 148.404 12.047 147.723 13.3987 147.333C14.7265 146.969 15.6444 147.212 15.9584 148.281C16.2484 149.352 15.5965 150.057 14.2687 150.446ZM21.5583 145.68L8.69161 141.838L9.05351 143.151L21.9214 146.993L21.5595 145.68H21.5583ZM16.0303 137.266C13.6408 137.947 13.2789 139.528 13.6648 140.841C14.0267 142.155 15.1615 143.321 17.551 142.665C19.9417 141.984 20.3036 140.403 19.9417 139.065C19.5558 137.753 18.4198 136.585 16.0303 137.266ZM18.9039 139.358C19.2179 140.452 18.566 141.133 17.2143 141.522C15.8853 141.887 14.9686 141.644 14.6546 140.573C14.3406 139.479 14.9925 138.798 16.3443 138.41C17.672 138.02 18.59 138.263 18.9039 139.358ZM30.1061 161.413L27.9083 158.616L19.0238 165.692L20.0136 166.933L23.321 164.306L24.529 165.838C26.3385 168.148 28.2714 168.707 30.154 167.224C32.0378 165.741 31.9156 163.723 30.1061 161.413ZM29.1402 165.96C27.9814 166.884 26.9424 166.763 25.5667 164.987L24.384 163.479L27.8604 160.708L29.0431 162.215C30.42 163.99 30.299 165.035 29.139 165.96H29.1402ZM41.597 172.404L37.2758 178.021C35.8761 179.821 34.6682 179.918 33.1714 178.75C31.6747 177.559 31.4578 176.367 32.8575 174.568L37.2039 168.95L35.948 167.978L31.4578 173.814C29.6471 176.149 30.2019 178.192 32.3506 179.869C34.4992 181.547 36.5999 181.571 38.3867 179.237L42.8769 173.4L41.597 172.404ZM50.5547 177.341L47.2952 175.93L42.805 186.434L44.2538 187.066L45.9195 183.152L47.8991 184.003L49.1059 189.158L50.8914 189.936L49.5409 184.416C51.2305 184.732 52.6062 184.148 53.3312 182.446C54.2971 180.233 53.2342 178.507 50.5547 177.341ZM51.8585 181.79C51.2785 183.152 50.2647 183.541 48.2371 182.641L46.4743 181.887L48.2359 177.778L49.9986 178.532C52.0514 179.455 52.4373 180.429 51.8585 181.79ZM57.6764 191.735L65.1362 193L65.3543 191.662L59.4632 190.666L60.0911 186.897L64.9684 187.723L65.1841 186.386L60.308 185.559L60.888 182.058L66.7779 183.055L66.996 181.741L59.5351 180.477L57.6776 191.735H57.6764ZM86.8646 185.437L85.5368 185.68C85.7537 186.799 85.7058 187.796 85.441 188.623L82.3983 186.143C83.7021 184.975 84.523 184.003 84.2822 182.665C83.9921 181.133 82.5925 180.477 81.0706 180.769C79.164 181.133 78.3911 182.422 78.6559 183.808C78.85 184.805 79.6949 185.583 80.5637 186.288C79.2119 187.48 78.0531 188.696 78.3431 190.326C78.6559 192.1 80.3216 192.951 82.5194 192.538C83.9921 192.27 85.0539 191.517 85.7789 190.593L86.9137 191.517L88.6513 191.201L86.4548 189.425C86.9524 188.158 87.0941 186.779 86.8646 185.437ZM80.0328 183.517C79.8638 182.641 80.3228 182.082 81.2635 181.887C82.0844 181.741 82.7375 182.155 82.8813 182.982C83.0263 183.735 82.8333 184.271 81.5056 185.437C80.7087 184.781 80.1526 184.271 80.0316 183.517H80.0328ZM82.4463 191.298C80.9016 191.589 79.9849 191.03 79.7907 189.936C79.5738 188.794 80.2976 188.016 81.4325 186.994L84.8358 189.839C84.2478 190.605 83.3961 191.125 82.4463 191.298ZM102.123 172.282L107 180.209L97.5838 175.128L95.9421 176.149L101.905 185.851L103.185 185.049L98.3076 177.121L107.724 182.204L109.366 181.183L103.402 171.48L102.123 172.282ZM109.559 165.838L114.822 176.83L115.957 175.638L114.677 173.133L118.153 169.461L120.713 170.629L121.872 169.388L110.718 164.623L109.559 165.838ZM116.947 168.926L114.073 171.941L111.273 166.373L116.947 168.926ZM120.447 153.242L119.264 152.513L114.774 159.93L115.933 160.635L117.766 157.62L126.289 162.848L127.11 161.486L118.612 156.258L120.447 153.242ZM130.514 143.176L123.562 140.866L123.079 142.373L129.791 144.61C131.939 145.316 132.446 146.434 131.842 148.258C131.238 150.081 130.2 150.69 128.028 149.96L121.316 147.747L120.833 149.255L127.786 151.565C130.586 152.489 132.301 151.298 133.146 148.695C133.967 146.094 133.291 144.099 130.514 143.176ZM128.511 127.929C126.12 127.759 124.865 129.34 124.672 132.282L124.43 135.832L135.73 136.585L135.825 135.005L131.625 134.738L131.77 132.573L136.189 129.704L136.308 127.759L131.601 130.871C131.335 129.17 130.345 128.05 128.511 127.929ZM130.297 134.641L125.879 134.348L126 132.428C126.145 130.166 126.917 129.485 128.414 129.582C129.862 129.679 130.562 130.506 130.419 132.719L130.297 134.641ZM125.034 119.443L136.26 124.038L136.308 122.409L133.701 121.413L133.822 116.354L136.477 115.479L136.526 113.776L125.082 117.765L125.034 119.443ZM132.518 116.743L132.422 120.902L126.652 118.665L132.518 116.743ZM135.319 107.163L125.348 106.896L125.3 108.5L136.622 108.792L136.815 101.74L135.464 101.716L135.319 107.163ZM76.5073 89.8253C76.7002 88.5845 76.8692 87.4901 76.9423 87.0286C73.1998 85.3024 69.7474 83.8674 67.5988 83.0403C67.9858 84.329 69.6276 87.0525 76.5073 89.8253ZM80.8764 66.1894C80.3707 67.2838 80.9256 70.3227 79.4288 71.6113C77.9309 72.9012 76.9662 73.0463 76.9662 73.0463L78.5361 86.4208C82.1323 88.0991 85.8747 89.9715 89.0132 91.7948C83.4361 63.5389 83.4852 63.5641 83.4852 63.5641C83.4852 63.5641 81.3845 65.0949 80.8776 66.1894H80.8764ZM71.4622 120.172C71.9931 119.904 72.355 119.516 72.5 119.297C71.7737 117.439 71.0654 115.575 70.3753 113.703L68.5898 114.895C69.3376 117.521 70.6174 120.172 71.4622 120.172ZM77.0142 114.287C76.6762 113.145 76.0974 111.199 75.4443 109.011C74.9866 109.303 74.3826 109.667 73.9967 109.91C74.1897 111.418 75.1076 114.457 75.8074 114.993C76.2424 114.798 76.6523 114.604 77.0142 114.287Z" fill="black"/>
<path d="M66.6581 118.543C66.73 118.81 66.7539 119.078 66.7539 119.346C67.8888 120.026 68.9277 120.391 69.8205 120.465C68.4196 118.834 67.5269 115.601 67.3339 114.774C67.262 114.531 67.3819 114.263 67.5748 114.117L69.9415 112.513C69.3615 110.907 68.8307 109.4 68.5167 108.354C67.5029 104.949 61.806 88.7311 60.767 86.8838C60.163 85.8133 59.1972 85.1084 58.3044 85.0593C57.6285 85.0353 57.0006 85.3758 56.4697 86.0806C55.5278 87.3933 55.0449 91.2593 55.4319 94.4216C55.7459 94.5427 56.0587 94.6889 56.3726 94.8591C58.5704 96.0986 61.5879 99.2106 63.5436 106.92C65.0403 112.755 65.8132 115.527 66.2231 117.035C66.4651 117.765 66.585 118.203 66.6581 118.543ZM63.9774 113.315L61.9258 115.017C62.4567 117.254 63.5915 120.439 64.5082 120.926C64.5562 120.95 64.5801 120.95 64.6053 120.95C64.8222 120.829 65.0163 120.707 65.1601 120.513C65.5232 120.075 65.6431 119.467 65.4741 118.81C65.4022 118.47 65.2824 118.056 65.0882 117.351C64.8713 116.524 64.5094 115.285 63.9774 113.315Z" fill="black"/>
<path d="M59.5602 84.1349C60.453 84.5245 61.2499 85.2785 61.8287 86.2747C63.0127 88.3425 68.8067 104.999 69.6995 108.014C70.2064 109.716 71.3652 112.852 72.3071 115.358C72.5971 115.406 73.5138 115.528 74.5767 115.334C73.3688 113.608 72.79 110.033 72.766 109.619C72.7639 109.515 72.7868 109.412 72.8329 109.319C72.879 109.226 72.9469 109.145 73.0309 109.083C73.394 108.84 74.4809 108.16 75.0836 107.795C73.6097 102.834 71.92 97.2169 71.896 97.1198C71.8481 96.9988 71.8721 96.8765 71.92 96.7554C68.0577 93.9347 64.6293 89.4118 66.3201 82.0191V81.9951C66.3201 81.9711 66.3441 81.9471 66.3441 81.9232L66.416 81.7769L66.4879 81.7038C66.5119 81.6558 66.561 81.6307 66.6089 81.6067L66.6329 81.5827C66.6569 81.5576 66.6808 81.5576 66.7048 81.5576C66.7539 81.5336 66.7779 81.5336 66.827 81.5096H67.0439C67.0679 81.5096 67.0679 81.5336 67.0919 81.5336H67.1398C67.5748 81.7038 68.1057 81.898 68.6617 82.1174C68.5658 81.8249 68.4927 81.5815 68.3957 81.3142C67.7917 79.6851 67.0679 78.6398 66.1512 78.1051C66.1032 78.0812 66.0541 78.0812 66.0062 78.056C65.0882 77.5945 63.9534 77.5693 62.5046 78.008C59.293 78.955 59.4871 83.1627 59.5602 84.1349Z" fill="black"/>
<path d="M89.4003 93.4002C86.1168 91.4307 81.9885 89.3628 78.0759 87.5395C77.9561 88.2204 77.7631 89.4611 77.5702 90.7498C77.5534 90.8384 77.5191 90.9227 77.4693 90.9978C77.4195 91.0729 77.3552 91.1374 77.2802 91.1873C77.183 91.2367 77.0752 91.2614 76.9662 91.2593C76.8943 91.2593 76.8224 91.2353 76.7493 91.2113C70.7864 88.9253 68.2027 86.5422 67.0679 84.768C66.4639 93.7155 74.6247 97.2902 78.7518 99.0656L79.3569 99.3329C79.487 99.392 79.5921 99.4951 79.6539 99.6239C79.7157 99.7528 79.7302 99.8993 79.6949 100.038C77.835 106.847 81.7225 108.986 81.7704 109.012C81.913 109.088 82.0203 109.217 82.0699 109.372C82.1195 109.526 82.1075 109.693 82.0364 109.839C81.9406 110.057 81.7225 110.154 81.5056 110.154C81.4046 110.153 81.3052 110.129 81.2156 110.082C81.0226 109.984 76.6283 107.577 78.415 100.233L78.27 100.185C76.9662 99.6254 75.1555 98.8222 73.2969 97.6798C74.2628 100.889 77.4492 111.492 78.2461 114.287C78.318 114.507 78.2461 114.725 78.1011 114.895C77.5135 115.48 76.8045 115.929 76.0243 116.209C76.0004 116.209 75.9764 116.233 75.9764 116.233C75.1554 116.528 74.289 116.676 73.4167 116.671C73.1771 116.671 72.959 116.671 72.766 116.647C73.3209 118.081 73.7067 119.127 73.7307 119.152C73.8026 119.297 73.7786 119.491 73.7067 119.637C73.6828 119.685 73.0309 121.047 71.3652 121.534C70.9579 121.653 70.5349 121.711 70.1105 121.704C69.0236 121.704 67.7917 121.316 66.4879 120.586C66.392 120.853 66.247 121.096 66.0781 121.316C65.8372 121.631 65.5232 121.85 65.1601 122.045C65.1362 122.069 65.1122 122.094 65.0643 122.118H65.0403C64.5474 122.367 63.9982 122.484 63.4465 122.458C61.9737 122.409 58.3283 121.51 56.5656 114.093C55.0449 107.771 54.369 106.702 53.4511 105.728C53.2342 105.485 53.2342 105.097 53.475 104.877C53.7171 104.659 54.103 104.659 54.3211 104.901C55.4799 106.142 56.2037 107.431 57.7483 113.826C59.1744 119.736 61.6837 120.999 63.0606 121.217C61.6106 119.248 60.6699 115.041 60.6699 114.968C60.6457 114.859 60.6508 114.745 60.6846 114.638C60.7185 114.532 60.78 114.436 60.8628 114.361L63.6394 112.051C63.2287 110.452 62.8105 108.855 62.3847 107.26C60.9347 101.57 58.5692 97.5336 55.7699 95.9284C54.1521 95.0054 52.8483 95.1013 52.0274 95.3458C51.6208 95.4608 51.2424 95.6592 50.9166 95.9284C50.4097 96.318 50.0238 96.9018 49.7098 97.6546C49.5648 97.9963 49.4438 98.3859 49.3467 98.8222C49.3228 98.8953 49.2988 98.9445 49.2988 99.0176C48.9609 100.622 48.889 102.761 49.0579 105.534C49.2017 108.087 49.8297 111.394 50.8674 115.479C52.1964 120.805 54.1988 127.419 56.7345 135.394C61.3698 149.96 71.1483 147.99 71.2441 147.966C71.4011 147.936 71.5639 147.966 71.6989 148.052C71.8338 148.138 71.9306 148.273 71.9691 148.428C72.0002 148.585 71.97 148.749 71.8847 148.884C71.7993 149.02 71.6654 149.118 71.5102 149.158C71.4862 149.158 70.9302 149.279 70.0374 149.279C68.8067 149.279 66.8989 149.06 64.7982 148.064C64.7982 149.085 64.6784 156.866 63.1325 163.237C68.7336 164.283 87.7346 156.379 87.7346 156.379L90.8 132.598C90.8 132.622 104.924 114.117 89.4003 93.3991V93.4002ZM80.7806 119.491C80.5157 119.613 74.4317 122.749 76.4114 131.237C76.4291 131.315 76.4313 131.395 76.4178 131.474C76.4044 131.553 76.3755 131.628 76.3329 131.696C76.2902 131.764 76.2347 131.822 76.1694 131.869C76.1042 131.915 76.0304 131.948 75.9524 131.965C75.9045 131.965 75.8566 131.991 75.8074 131.991C75.5414 131.991 75.2766 131.795 75.2286 131.528C73.0069 122.069 80.1778 118.446 80.2497 118.397C80.3911 118.327 80.5542 118.316 80.7035 118.367C80.8528 118.417 80.9761 118.524 81.0466 118.665C81.0873 118.736 81.1128 118.815 81.1214 118.896C81.1299 118.978 81.1214 119.06 81.0964 119.138C81.0713 119.216 81.0303 119.287 80.9759 119.348C80.9215 119.409 80.855 119.459 80.7806 119.492V119.491ZM75.2274 42.2864C73.346 43.3809 68.0098 46.2016 71.8721 56.1477C72.8619 58.701 73.8038 60.5974 73.8517 63.5392C73.8997 66.4821 72.645 71.6608 76.7002 71.5397C80.7566 71.4174 78.3899 66.7243 79.9118 64.6337C81.4337 62.567 81.9154 63.0525 82.3264 59.1386C82.7602 55.2234 84.6189 57.3632 84.2091 51.9892C83.7741 46.6151 83.3642 45.0831 81.9633 43.1375C80.5637 41.1919 77.11 41.192 75.2286 42.2864H75.2274Z" fill="black"/>
</g>
<defs>
<clipPath id="clip0">
<rect width="145" height="193" fill="white"/>
</clipPath>
</defs>
</svg>
