<svg width="282" height="282" viewBox="0 0 282 282" fill="none" xmlns="http://www.w3.org/2000/svg">
<path d="M141 282C218.872 282 282 218.872 282 141C282 63.1278 218.872 0 141 0C63.1278 0 0 63.1278 0 141C0 218.872 63.1278 282 141 282Z" fill="black"/>
<path d="M146.452 33.2198L156.493 21.193L147.695 20.4374L147.865 18.33L159.691 19.3411L159.532 21.1823L149.491 33.209L158.586 33.9859L158.405 36.0933L146.282 35.0609L146.452 33.2198Z" fill="white"/>
<path d="M168.148 20.7886L178.741 23.428L178.231 25.4822L170.029 23.4387L168.807 28.3558L175.937 30.1333L175.427 32.1874L168.296 30.4099L167 35.6464L175.204 37.6897L174.693 39.744L164.1 37.1045L168.148 20.7886Z" fill="white"/>
<path d="M187.168 26.3019L191.164 28.0155C195.127 29.7183 196.859 32.4004 195.551 35.4656C194.49 37.9561 192.225 38.8713 189.868 38.4777L192.035 46.6621L189.187 45.4488L187.35 37.8604L185.298 36.9876L182.843 42.7454L180.58 41.745L187.168 26.3019ZM186.106 35.0718L187.859 35.8274C190.76 37.0727 192.386 36.3703 193.129 34.6141C193.862 32.89 193.256 31.1977 190.356 29.9631L188.603 29.218L186.106 35.0718Z" fill="white"/>
<path d="M199.408 41.2235C202.31 36.615 205.922 34.9122 209.747 37.3281C213.55 39.7334 213.54 43.5969 210.682 48.1308C207.782 52.7394 204.189 54.4209 200.365 52.0049C196.561 49.6103 196.571 45.7362 199.408 41.2235ZM208.461 46.843C209.97 44.4483 211.671 41.0851 208.546 39.1055C205.423 37.1364 203.127 40.1166 201.619 42.5112C200.131 44.8847 198.431 48.2479 201.544 50.2169C204.657 52.1858 206.974 49.2058 208.461 46.843Z" fill="white"/>
<path d="M235.705 59.5188L238.84 63.3078C241.496 66.522 241.974 69.7575 239.201 72.0564C236.427 74.3552 233.356 73.3123 230.679 70.0767L229.128 68.193L224.368 72.1521L222.796 70.2471L235.705 59.5188ZM230.754 66.8412L232.326 68.7464C234.335 71.1836 236.099 71.3008 237.564 70.0875C239.009 68.8847 239.233 67.1073 237.224 64.6807L235.652 62.7756L230.754 66.8412Z" fill="white"/>
<path d="M247.744 75.1961L248.998 77.3247L236.375 84.8068L240.752 92.225L238.936 93.3L233.304 83.7531L247.744 75.1961Z" fill="white"/>
<path d="M258.624 96.3228L259.601 98.8238L246.149 110.489L245.172 107.988L248.391 105.284L246 99.1858L241.804 99.3985L240.846 96.9613L258.624 96.3228ZM248.104 98.9941L250.038 103.933L252.078 102.208L256.71 98.462L250.771 98.8771L248.104 98.9941Z" fill="white"/>
<path d="M251.834 112.937L252.345 115.3C250.485 115.832 249.71 117.311 250.23 119.727C250.708 121.941 251.898 123.207 253.556 122.846C254.831 122.569 255.234 121.6 255.436 119.993L255.915 116.194C256.18 114.065 257.073 112.128 259.453 111.606C262.364 110.968 264.457 113.171 265.159 116.396C265.881 119.716 264.787 122.367 261.418 123.133L260.908 120.802C263.215 120.174 263.405 118.429 263.055 116.8C262.587 114.672 261.387 113.746 260.048 114.044C258.942 114.288 258.412 115.193 258.241 116.63L257.752 120.43C257.403 123.282 256.531 124.751 254.289 125.24C250.942 125.975 248.902 123.58 248.159 120.174C247.361 116.449 248.551 113.661 251.834 112.937Z" fill="white"/>
<path d="M265.339 134.978L265.021 129.327L267.124 129.21L267.9 143.046L265.796 143.163L265.478 137.448L250.836 138.267L250.698 135.798L265.339 134.978Z" fill="white"/>
<path d="M253.024 149.081L252.611 153.178L265.107 154.434L265.521 150.347L267.625 150.56L266.551 161.171L264.447 160.959L264.852 156.892L252.356 155.637L251.951 159.702L249.848 159.489L250.911 148.878L253.024 149.081Z" fill="white"/>
<path d="M257.082 166.769C262.576 168.227 264.935 171.419 263.777 175.795C263.033 178.582 260.983 181.339 256.604 180.328L257.221 178.018C259.664 178.423 261.163 177.337 261.726 175.177C262.693 171.515 259.601 170.078 256.434 169.238C253.449 168.44 250.017 168.152 249.04 171.803C248.391 174.251 249.188 175.666 251.526 176.476L250.91 178.806C246.775 177.55 246.18 174.22 246.978 171.218C248.168 166.706 251.812 165.363 257.082 166.769Z" fill="white"/>
<path d="M240.911 199.581L239.593 201.605C237.904 200.646 236.31 201.135 234.961 203.201C233.729 205.094 233.664 206.83 235.078 207.766C236.172 208.48 237.149 208.085 238.424 207.106L241.464 204.787C243.163 203.477 245.161 202.754 247.211 204.095C249.698 205.723 249.614 208.756 247.806 211.534C245.948 214.376 243.301 215.451 240.389 213.588L241.687 211.587C243.748 212.79 245.128 211.704 246.044 210.3C247.234 208.48 247.042 206.968 245.894 206.212C244.948 205.595 243.929 205.85 242.781 206.734L239.742 209.054C237.468 210.799 235.811 211.215 233.888 209.959C231.019 208.085 231.284 204.946 233.186 202.03C235.28 198.858 238.095 197.751 240.911 199.581Z" fill="white"/>
<path d="M239.02 223.082L237.364 224.912L232.051 220.091L228.256 224.284L233.569 229.105L231.913 230.937L219.469 219.655L221.127 217.824L226.705 222.89L230.498 218.697L224.92 213.631L226.579 211.8L239.02 223.082Z" fill="white"/>
<path d="M220.936 229.798C224.347 234.045 224.781 238.014 221.254 240.856C217.758 243.676 214.103 242.41 210.756 238.227C207.345 233.981 206.93 230.032 210.458 227.2C213.955 224.38 217.598 225.647 220.936 229.798ZM212.69 236.556C214.464 238.76 217.089 241.463 219.957 239.153C222.836 236.843 220.765 233.693 218.99 231.48C217.237 229.297 214.613 226.594 211.744 228.904C208.875 231.213 210.936 234.363 212.69 236.556Z" fill="white"/>
<path d="M209.364 249.084L205.103 251.52C201.49 253.586 198.218 253.5 196.433 250.371C194.648 247.242 196.21 244.39 199.853 242.303L201.968 241.09L198.909 235.704L201.055 234.48L209.364 249.084ZM203.02 242.932L200.874 244.156C198.133 245.719 197.707 247.434 198.653 249.093C199.578 250.722 201.289 251.254 204.03 249.69L206.176 248.466L203.02 242.932Z" fill="white"/>
<path d="M164.493 248.806C170.411 247.614 173.726 251.106 174.64 255.639C175.553 260.173 173.854 264.675 167.925 265.878C162.006 267.07 158.691 263.578 157.778 259.055C156.864 254.532 158.574 249.999 164.493 248.806Z" fill="white"/>
<path d="M136.336 253.053L125.933 264.771L134.71 265.792L134.466 267.889L122.671 266.517L122.884 264.685L133.286 252.968L124.212 251.913L124.456 249.817L136.548 251.223L136.336 253.053Z" fill="white"/>
<path d="M114.256 264.802L103.748 261.833L104.322 259.801L112.45 262.099L113.821 257.225L106.744 255.224L107.318 253.191L114.395 255.192L115.861 249.999L107.732 247.699L108.306 245.666L118.815 248.635L114.256 264.802Z" fill="white"/>
<path d="M95.439 258.715L91.4969 256.884C87.5868 255.065 85.9398 252.329 87.3424 249.296C88.4793 246.837 90.7744 245.997 93.1226 246.465L91.2101 238.217L94.0151 239.525L95.6196 247.167L97.6384 248.104L100.274 242.431L102.515 243.475L95.439 258.715ZM96.7672 249.966L95.0458 249.168C92.1876 247.837 90.5406 248.487 89.7437 250.212C88.9575 251.913 89.51 253.617 92.3683 254.948L94.0896 255.746L96.7672 249.966Z" fill="white"/>
<path d="M83.6554 243.411C80.606 247.934 76.9509 249.519 73.2001 246.987C69.4705 244.464 69.6087 240.601 72.6051 236.152C75.6545 231.629 79.2884 230.064 83.0393 232.596C86.7581 235.119 86.6307 238.982 83.6554 243.411ZM74.7726 237.503C73.1894 239.855 71.3938 243.166 74.4432 245.23C77.5033 247.296 79.8941 244.39 81.4773 242.038C83.0393 239.717 84.8456 236.408 81.7855 234.332C78.7359 232.278 76.3346 235.184 74.7726 237.503Z" fill="white"/>
<path d="M47.9428 224.018L44.9251 220.133C42.3644 216.845 41.9925 213.588 44.8295 211.375C47.6665 209.161 50.7054 210.3 53.2874 213.621L54.7856 215.547L59.6732 211.737L61.1927 213.684L47.9428 224.018ZM53.1174 216.845L51.598 214.897C49.6642 212.407 47.9002 212.226 46.4021 213.396C44.9251 214.546 44.6382 216.324 46.572 218.814L48.0916 220.762L53.1174 216.845Z" fill="white"/>
<path d="M36.3822 207.948L35.1922 205.777L48.049 198.699L43.905 191.152L45.7538 190.131L51.0878 199.848L36.3822 207.948Z" fill="white"/>
<path d="M26.1716 186.533L25.2685 184.011L39.0815 172.762L39.9846 175.284L36.6802 177.891L38.8902 184.064L43.0979 183.98L43.9799 186.449L26.1716 186.533ZM36.7758 184.193L34.9907 179.201L32.8975 180.872L28.148 184.469L34.0982 184.235L36.7758 184.193Z" fill="white"/>
<path d="M33.4717 170.122L33.036 167.748C34.9168 167.28 35.7349 165.822 35.2886 163.395C34.8742 161.171 33.7266 159.862 32.0585 160.182C30.7728 160.416 30.3479 161.373 30.0928 162.969L29.4872 166.748C29.1578 168.866 28.2016 170.771 25.8108 171.218C22.8888 171.761 20.8593 169.505 20.2642 166.247C19.6481 162.906 20.8274 160.299 24.2063 159.639L24.642 161.979C22.3257 162.534 22.0706 164.279 22.3788 165.918C22.7719 168.056 23.9512 169.015 25.3008 168.77C26.4164 168.568 26.9689 167.674 27.1921 166.238L27.7977 162.459C28.244 159.618 29.1471 158.181 31.3997 157.755C34.7681 157.126 36.7337 159.585 37.3712 163.012C38.0512 166.748 36.7656 169.505 33.4717 170.122Z" fill="white"/>
<path d="M20.6463 147.676L20.7951 153.337L18.6807 153.391L18.33 139.534L20.4444 139.481L20.5932 145.196L35.2563 144.824L35.3201 147.293L20.6463 147.676Z" fill="white"/>
<path d="M33.3861 133.957L33.9174 129.88L21.475 128.241L20.9437 132.318L18.8504 132.041L20.2424 121.462L22.3357 121.738L21.8044 125.783L34.2468 127.422L34.7779 123.378L36.8712 123.654L35.4793 134.233L33.3861 133.957Z" fill="white"/>
<path d="M29.8799 116.151C24.4397 114.522 22.1763 111.266 23.4727 106.923C24.3015 104.156 26.4372 101.463 30.783 102.613L30.1029 104.901C27.6697 104.422 26.1503 105.454 25.5128 107.604C24.429 111.234 27.4785 112.766 30.6129 113.703C33.5775 114.586 36.9988 114.991 38.0827 111.372C38.8052 108.945 38.0614 107.509 35.7451 106.625L36.4357 104.316C40.5265 105.699 41.0152 109.052 40.1334 112.021C38.7839 116.481 35.0969 117.705 29.8799 116.151Z" fill="white"/>
<path d="M47.0394 83.8593L48.4207 81.8797C50.0783 82.8908 51.6827 82.4544 53.0958 80.4216C54.3922 78.5591 54.5091 76.8349 53.1171 75.8558C52.044 75.1107 51.0664 75.4727 49.7489 76.4092L46.6356 78.6336C44.893 79.8895 42.8742 80.5494 40.8766 79.1444C38.4328 77.4416 38.624 74.4082 40.5154 71.6943C42.4598 68.9059 45.1481 67.916 47.9957 69.8637L46.6356 71.822C44.6168 70.5556 43.193 71.5985 42.2473 72.9715C41.0041 74.7595 41.1423 76.2709 42.2686 77.0585C43.193 77.7077 44.2237 77.4842 45.403 76.6327L48.5163 74.4082C50.8433 72.7267 52.5115 72.3649 54.3922 73.6846C57.1972 75.6428 56.836 78.7719 54.849 81.6349C52.6496 84.764 49.7913 85.7858 47.0394 83.8593Z" fill="white"/>
<path d="M49.6529 60.4339L51.3636 58.6564L56.5276 63.6374L60.4484 59.5611L55.2844 54.5801L56.9952 52.8027L69.0762 64.4676L67.3656 66.2449L61.9465 61.0192L58.0257 65.0955L63.4448 70.3212L61.734 72.0987L49.6529 60.4339Z" fill="white"/>
<path d="M67.9294 54.2613C64.6461 49.9082 64.338 45.9278 67.9507 43.2031C71.542 40.4891 75.1441 41.8728 78.3742 46.1513C81.6575 50.5044 81.9444 54.4635 78.3423 57.1882C74.7509 59.8916 71.1383 58.5185 67.9294 54.2613ZM76.3872 47.7584C74.6872 45.5021 72.1477 42.7136 69.1938 44.938C66.2506 47.1624 68.2162 50.3766 69.927 52.6329C71.6059 54.868 74.1559 57.6565 77.0991 55.4215C80.0425 53.2183 78.0661 50.0041 76.3872 47.7584Z" fill="white"/>
<path d="M80.096 35.3482L84.4312 33.0386C88.1075 31.0802 91.3801 31.2719 93.059 34.4542C94.7485 37.6365 93.1015 40.4356 89.3933 42.4045L87.2363 43.5541L90.1371 49.0352L87.9588 50.1953L80.096 35.3482ZM86.2482 41.6915L88.4263 40.5313C91.2102 39.052 91.6884 37.3491 90.7958 35.6568C89.9139 33.9965 88.2244 33.4111 85.4405 34.8905L83.2623 36.0506L86.2482 41.6915Z" fill="white"/>
<path d="M124.924 37.0088C118.974 38.0305 115.765 34.4332 114.989 29.8779C114.214 25.3228 116.052 20.8739 122.002 19.8521C127.952 18.8304 131.161 22.4278 131.937 26.983C132.713 31.5383 130.874 35.9977 124.924 37.0088Z" fill="white"/>
<path d="M115.328 150.616C115.192 150.146 114.993 149.696 114.737 149.279C114.484 148.798 114.369 148.256 114.405 147.714C114.405 147.33 114.571 147.061 114.198 146.822C113.969 146.71 113.729 146.623 113.482 146.563L109.624 145.36C110.109 147.105 111.076 148.679 112.414 149.901C113.242 151.248 114.186 152.521 115.235 153.706C115.069 153.34 114.977 152.946 114.965 152.544C114.945 151.922 115.422 151.269 115.328 150.616Z" fill="white"/>
<path d="M109.458 144.075C110.972 144.541 112.497 144.998 114.001 145.485C114.534 145.602 115.014 145.89 115.37 146.304C115.764 146.864 115.536 147.34 115.567 148.014C115.567 149.051 116.5 149.756 116.511 150.782C116.511 151.404 116.117 151.943 116.137 152.555C116.222 153.118 116.451 153.65 116.801 154.099C118.136 155.924 120.024 157.269 122.185 157.935C124.779 158.753 127.482 159.172 130.202 159.179C130.746 159.223 131.292 159.131 131.792 158.912C132.291 158.693 132.729 158.354 133.065 157.925C133.56 157.257 133.939 156.51 134.185 155.717C132.829 154.933 131.672 153.847 130.804 152.544C129.601 150.886 128.491 149.175 127.34 147.486C126.863 146.599 126.266 145.783 125.566 145.06C124.782 144.574 123.913 144.243 123.004 144.085C122.117 143.867 121.216 143.715 120.307 143.629C119.55 143.557 118.782 143.629 118.036 143.443C117.459 143.36 116.932 143.073 116.551 142.633C116.17 142.193 115.96 141.63 115.961 141.048C115.961 139.908 116.615 138.861 116.646 137.731C116.646 137.046 116.21 136.881 115.837 136.373C115.349 135.709 115.712 135.025 115.723 134.299C115.637 133.376 115.495 132.458 115.297 131.552C115.204 130.785 115.173 129.997 115.152 129.22C115.152 126.11 115.505 122.761 113.69 120.045C113.264 119.403 114.312 118.801 114.727 119.444C116.708 122.398 116.283 126.047 116.355 129.417C116.362 130.271 116.431 131.123 116.563 131.967C116.742 132.734 116.86 133.514 116.915 134.299C116.915 134.745 116.635 135.429 116.915 135.782C117.195 136.134 117.351 136.165 117.517 136.424C117.765 136.821 117.885 137.284 117.859 137.751C117.859 138.85 117.247 139.825 117.185 140.944C117.092 142.53 119.011 142.344 120.141 142.437C121.917 142.563 123.665 142.951 125.327 143.588C127.028 144.262 127.848 145.993 128.823 147.423C129.798 148.854 130.835 150.44 131.935 151.902C132.773 153.211 133.957 154.262 135.357 154.939C135.472 155.005 135.561 155.107 135.611 155.229C135.662 155.351 135.671 155.486 135.637 155.613C134.974 157.852 133.646 160.195 131.022 160.402C129.561 160.449 128.098 160.355 126.655 160.122C125.304 159.982 123.968 159.725 122.662 159.355C122.216 159.221 121.77 159.065 121.334 158.899C123.29 160.135 125.377 161.15 127.557 161.926C135.285 164.715 144.983 163.378 151.943 159.096C157.892 155.378 162.517 149.878 165.157 143.38H165.022L164.203 143.277C163.95 143.26 163.706 143.178 163.495 143.038C163.284 142.898 163.113 142.705 163 142.479C162.591 141.944 162.302 141.327 162.153 140.67C162.005 140.014 162 139.333 162.139 138.674C162.823 136.528 165.137 135.668 166.993 134.745C167.108 134.685 167.239 134.664 167.367 134.683C167.711 131.388 167.476 128.059 166.672 124.845C166.565 122.481 165.675 120.22 164.141 118.418C164.141 118.335 164.068 118.262 164.027 118.19C163.643 117.516 163.228 116.894 162.792 116.272C162.228 115.475 161.611 114.717 160.946 114.002C156.423 109.366 150.364 106.539 143.904 106.05C143.904 106.123 143.967 106.154 143.977 106.227C143.972 106.258 143.972 106.289 143.977 106.32C143.153 106.089 142.314 105.916 141.467 105.802C140.056 105.604 138.62 105.714 137.256 106.123C133.315 106.494 129.481 107.613 125.96 109.419C122.572 110.715 119.491 112.703 116.915 115.256C112.478 119.729 109.573 125.492 108.617 131.718C108.298 132.788 108.13 133.898 108.12 135.015C108.126 135.643 108.175 136.269 108.265 136.891C108.203 137.546 108.203 138.206 108.265 138.861C108.376 140.251 108.684 141.619 109.178 142.924C109.25 143.308 109.312 143.702 109.375 144.075C109.402 144.073 109.43 144.073 109.458 144.075ZM151.3 130.598C151.738 131.534 152.085 132.509 152.337 133.511C152.676 134.63 152.943 135.769 153.136 136.922C153.483 138.848 153.452 140.824 153.042 142.738C152.648 144.386 151.798 146.687 149.982 147.247C148.167 147.807 146.425 146.449 145.356 145.101C144.799 144.323 144.17 143.598 143.479 142.935C142.73 142.37 141.911 141.907 141.041 141.556C139.496 140.83 137.318 139.897 136.996 138.021C136.928 137.054 137.059 136.084 137.38 135.17C137.576 134.39 137.869 133.638 138.251 132.931C138.627 132.214 139.19 131.613 139.88 131.189C140.72 130.723 141.716 130.681 142.587 130.277C144.164 129.541 145.699 128.266 147.503 128.484C148.059 128.438 148.619 128.498 149.153 128.66C149.628 128.829 150.065 129.09 150.438 129.428C150.812 129.766 151.115 130.174 151.331 130.63L151.3 130.598ZM122.745 111.659C122.672 110.902 123.886 110.902 123.958 111.659C124.176 113.919 123.128 116.075 123.325 118.314C123.602 119.494 123.988 120.646 124.477 121.756C124.745 122.864 124.905 123.996 124.954 125.135C124.989 126.157 125.114 127.173 125.327 128.173C125.431 128.587 125.597 129.116 126.126 129.085C126.531 129.028 126.926 128.913 127.298 128.743C128.911 128.104 130.217 126.873 130.949 125.301C131.665 123.736 131.717 121.631 133.573 120.885C133.985 120.757 134.419 120.715 134.848 120.763C135.276 120.812 135.69 120.948 136.063 121.165C136.462 121.349 136.901 121.43 137.339 121.401C137.777 121.372 138.201 121.234 138.573 120.999C139.306 120.533 140.076 120.128 140.876 119.786C141.822 119.513 142.818 119.457 143.79 119.62C146.114 119.869 148.427 120.128 150.75 120.367C151.789 120.538 152.853 120.471 153.862 120.17C154.581 119.855 155.247 119.428 155.832 118.905C156.955 117.754 158.309 116.853 159.805 116.261C159.951 116.238 160.1 116.269 160.225 116.349C160.349 116.429 160.44 116.551 160.479 116.693C160.519 116.836 160.505 116.987 160.44 117.12C160.375 117.253 160.263 117.357 160.127 117.412C158.27 117.951 157.015 119.62 155.501 120.657C153.426 122.036 151.03 121.6 148.665 121.351L145.056 120.957C143.921 120.743 142.76 120.698 141.612 120.823C139.88 121.196 138.614 122.896 136.716 122.606C135.855 122.492 134.891 121.642 134.019 121.963C133.148 122.284 132.723 123.611 132.464 124.503C131.989 126.223 130.961 127.738 129.539 128.815C128.439 129.645 126.022 131.023 124.788 129.852C124.257 129.147 123.973 128.288 123.979 127.406C123.834 126.369 123.792 125.239 123.689 124.161C123.572 123.01 123.278 121.884 122.817 120.823C122.368 119.9 122.117 118.894 122.081 117.868C122.081 115.733 122.942 113.753 122.745 111.659Z" fill="white"/>
<path d="M163.238 138.705C162.761 139.742 163.342 140.872 163.902 141.815L164.006 141.991H164.203C164.359 141.991 164.525 141.991 164.68 142.054C164.939 142.072 165.195 142.11 165.448 142.168C166.199 140.127 166.738 138.015 167.055 135.865C166.402 136.186 165.748 136.507 165.116 136.901C164.305 137.275 163.644 137.911 163.238 138.705Z" fill="white"/>
<path d="M147.835 129.697C147.753 129.713 147.669 129.713 147.586 129.697H147.472C147.047 129.697 146.611 129.8 146.197 129.862H146.051C144.941 130.225 143.977 131.023 142.877 131.469C142.02 131.687 141.181 131.971 140.367 132.319C139.752 132.753 139.28 133.359 139.008 134.061C138.733 134.731 138.521 135.425 138.376 136.134C138.21 136.525 138.146 136.952 138.19 137.374C138.233 137.796 138.383 138.201 138.625 138.55C139.662 139.762 141.415 140.25 142.774 140.975C143.508 141.347 144.182 141.826 144.776 142.396C145.311 142.985 145.817 143.601 146.29 144.241C147.14 145.278 148.831 146.926 150.263 145.775C150.897 145.153 151.362 144.379 151.611 143.526C151.891 142.766 152.079 141.976 152.171 141.172C152.325 139.472 152.213 137.758 151.839 136.093C151.548 134.448 151.053 132.847 150.366 131.324C150.214 130.948 149.981 130.61 149.683 130.334C149.386 130.059 149.031 129.851 148.644 129.728C148.377 129.687 148.105 129.677 147.835 129.697Z" fill="white"/>
<path d="M174.907 127.945C174.703 126.119 174.402 124.306 174.005 122.512C173.912 122.015 173.86 121.393 173.725 120.854C173.59 120.315 173.331 119.517 173.092 118.863C172.027 115.879 170.636 113.021 168.943 110.342C168.788 110.104 168.622 109.855 168.445 109.627C169.669 108.245 170.883 106.831 172.086 105.387C172.822 104.516 171.63 103.314 170.789 104.112C167.463 107.381 164.144 110.653 160.832 113.929C161.492 114.648 162.109 115.406 162.678 116.199C164.099 114.613 165.51 113.006 166.91 111.41C167.522 112.519 168.134 113.639 168.715 114.769C168.745 114.845 168.783 114.918 168.829 114.986C168.952 115.172 169.125 115.319 169.327 115.411C169.607 115.982 169.887 116.552 170.146 117.132C170.747 118.443 171.246 119.798 171.64 121.186C171.713 121.434 171.775 121.694 171.827 121.953L171.889 122.284C171.889 122.284 171.889 122.471 171.889 122.523C171.972 123.414 172.273 124.306 172.428 125.197C173.593 132.168 172.669 139.328 169.773 145.775C166.912 152.355 162.324 158.039 156.496 162.227C154.155 163.919 151.546 165.209 148.779 166.042C143.834 167.478 138.646 167.885 133.537 167.24C128.428 166.595 123.505 164.91 119.073 162.289C118.596 161.978 118.119 161.657 117.662 161.325C118.699 160.433 119.664 159.532 120.66 158.63C119.787 158.249 118.959 157.772 118.191 157.209C115.691 159.811 113.181 162.393 110.692 165.005C110.599 165.079 110.524 165.173 110.472 165.279C110.421 165.386 110.394 165.503 110.394 165.622C110.394 165.741 110.421 165.858 110.472 165.964C110.524 166.071 110.599 166.165 110.692 166.239C110.773 166.331 110.872 166.405 110.984 166.456C111.096 166.507 111.217 166.533 111.34 166.533C111.463 166.533 111.584 166.507 111.696 166.456C111.808 166.405 111.908 166.331 111.989 166.239L116.065 162.683C122.08 166.968 129.239 169.358 136.623 169.546C137.753 169.546 138.905 169.546 140.067 169.546C140.102 174.719 140.581 179.88 141.498 184.971C137.294 185.172 133.1 185.465 128.916 185.852H128.854H128.75H128.678C128.63 185.874 128.587 185.906 128.553 185.946C128.48 186.035 128.44 186.146 128.44 186.262C128.44 186.377 128.48 186.489 128.553 186.578C128.587 186.631 128.633 186.676 128.687 186.708C128.741 186.741 128.802 186.76 128.864 186.765C138.182 188.562 147.792 188.15 156.922 185.562C157.059 185.544 157.184 185.472 157.269 185.363C157.353 185.253 157.391 185.114 157.373 184.976C157.355 184.839 157.283 184.714 157.173 184.63C157.063 184.545 156.924 184.508 156.787 184.525C152.396 184.484 148.012 184.553 143.635 184.733C143.682 184.614 143.706 184.487 143.707 184.36C143.769 179.29 143.707 174.211 143.365 169.152C147.533 168.734 151.569 167.46 155.221 165.409C161.618 161.554 166.845 156.032 170.343 149.435C173.886 142.853 175.47 135.396 174.907 127.945Z" fill="white"/>
</svg>
