<svg width="81" height="80" viewBox="0 0 81 80" fill="none" xmlns="http://www.w3.org/2000/svg">
<g clip-path="url(#clip0)">
<path d="M40.5 79.5C18.683 79.5 0.999999 61.815 0.999998 40C0.999997 18.185 18.684 0.499999 40.5 0.499998C62.315 0.499997 80 18.185 80 40C80 61.815 62.314 79.5 40.5 79.5Z" fill="black"/>
<path d="M50.77 34.0739C50.6428 33.8607 50.4434 33.7 50.208 33.6209C49.572 33.3839 48.684 33.4909 48.325 33.9689C46.089 36.9409 44.027 39.9739 41.869 42.9719C41.606 43.3369 41.343 43.6999 41.076 44.0619C38.537 40.7329 36.186 37.3339 33.578 34.0319C32.915 33.1939 30.828 33.5719 31.011 34.5219C31.584 37.4829 32.507 38.0379 35.553 43.8279C35.83 44.3529 37.337 46.4509 37.83 46.8909C38.262 47.2769 38.692 47.6829 39.183 48.0329C39.963 48.5899 41.153 48.6509 42.053 48.1929C42.677 47.8769 43.729 46.4079 44.128 45.9479C45.657 44.1809 46.941 42.0909 47.58 40.9969C48.853 38.8269 49.724 37.0349 50.934 34.8469C51.072 34.5959 50.983 34.3069 50.769 34.0739L50.77 34.0739Z" fill="white"/>
</g>
<defs>
<clipPath id="clip0">
<rect width="79" height="80" fill="white" transform="translate(0.5 79.5) rotate(-90)"/>
</clipPath>
</defs>
</svg>
